<?xml version="1.0" encoding="UTF-8" standalone="no"?>
<!-- Created with Inkscape (http://www.inkscape.org/) -->

<svg
   width="132.25403mm"
   height="185.02057mm"
   viewBox="0 0 132.25403 185.02057"
   version="1.1"
   id="svg5"
   xmlns="http://www.w3.org/2000/svg"
   xmlns:svg="http://www.w3.org/2000/svg">
  <defs
     id="defs2" />
  <g
     id="layer1"
     transform="translate(-37.064767,-72.90167)">
    <g
       id="g361"
       transform="translate(13.762736,0.23326671)"
       style="stroke:#ffffff;stroke-width:4;stroke-dasharray:none;stroke-opacity:1">
      <path
         style="fill:none;stroke:#ffffff;stroke-width:4;stroke-linecap:butt;stroke-linejoin:miter;stroke-dasharray:none;stroke-opacity:1"
         d="M 54.475871,155.23549 C 53.339924,140.54249 40.438867,75.272574 89.577368,74.672868 142.59535,74.025815 132.15514,142.53385 130.13911,155.89314 187.48059,180.045 1.3923144,184.03866 54.475871,155.23549 Z"
         id="path72" />
      <path
         style="fill:none;stroke:#ffffff;stroke-width:4;stroke-linecap:butt;stroke-linejoin:miter;stroke-dasharray:none;stroke-opacity:1"
         d="M 65.616666,155.46116 C 64.795937,144.84537 54.817032,88.149213 90.319927,87.715922 c 38.305843,-0.467501 30.762713,58.568218 29.306113,68.220388 -9.87937,5.60934 -44.671565,6.85028 -54.009374,-0.47515 z"
         id="path72-3" />
      <path
         style="fill:none;stroke:#ffffff;stroke-width:4;stroke-linecap:butt;stroke-linejoin:miter;stroke-dasharray:none;stroke-opacity:1"
         d="M 92.451906,87.609094 94.22485,160.51949"
         id="path350" />
      <path
         style="fill:none;stroke:#ffffff;stroke-width:4;stroke-linecap:butt;stroke-linejoin:miter;stroke-dasharray:none;stroke-opacity:1"
         d="m 65.193314,112.36819 53.450536,-0.11842"
         id="path352" />
      <path
         style="fill:none;stroke:#ffffff;stroke-width:4;stroke-linecap:butt;stroke-linejoin:miter;stroke-dasharray:none;stroke-opacity:1"
         d="M 63.894228,136.50708 121.18868,135.9069"
         id="path354" />
    </g>
    <path
       style="fill:none;stroke:#ffffff;stroke-width:4;stroke-linecap:butt;stroke-linejoin:miter;stroke-dasharray:none;stroke-opacity:1"
       d="m 66.119334,117.55801 c 0.928665,-29.210911 -24.629058,-40.455398 -24.942426,13.57735 -0.366283,63.15669 -10.726171,118.37955 18.053338,123.00271 15.998553,2.57002 79.053524,2.43979 98.314004,-1.87544 9.36412,-2.09799 9.61954,-13.17848 9.75848,-30.77766 0.58086,-73.57784 -15.55189,-61.19353 -15.55189,-61.19353"
       id="path363" />
    <g
       id="g1312"
       transform="matrix(1.2912086,0,0,1.2641267,-20.726695,-63.385852)"
       style="stroke:#ffffff;stroke-width:3.13088;stroke-dasharray:none;stroke-opacity:1">
      <path
         style="fill:none;stroke:#ffffff;stroke-width:3.13088;stroke-linecap:butt;stroke-linejoin:miter;stroke-dasharray:none;stroke-opacity:1"
         d="m 66.534347,220.30262 c 6.021303,-2.19291 -2.973591,-15.0725 11.08906,-14.7854 15.701073,0.32055 4.496949,9.93695 11.452372,14.47137 5.330255,3.47493 9.616842,1.03443 10.356112,14.72981 0.51802,9.59655 -3.35754,11.45806 -21.069214,11.08906 -17.742494,-0.36964 -19.935716,-0.83845 -20.699576,-11.82834 -0.566183,-8.14585 3.088981,-11.57064 8.871246,-13.6765 z"
         id="path365" />
      <path
         style="fill:none;stroke:#ffffff;stroke-width:3.13088;stroke-linecap:butt;stroke-linejoin:miter;stroke-dasharray:none;stroke-opacity:1"
         d="m 61.696173,222.84818 c -16.600671,-18.80952 13.825223,-22.84564 15.927233,-31.00748 3.327655,8.04736 33.885774,11.08636 16.986235,30.78117"
         id="path367" />
      <circle
         style="fill:none;stroke:#ffffff;stroke-width:3.13088;stroke-linecap:round;stroke-linejoin:round;stroke-miterlimit:0;stroke-dasharray:none;stroke-opacity:1;stop-color:#000000"
         id="path421"
         cx="78.463821"
         cy="231.65239"
         r="6.2837996" />
    </g>
    <path
       id="path1374"
       style="fill:none;stroke:#ffffff;stroke-width:4;stroke-linecap:butt;stroke-linejoin:miter;stroke-dasharray:none;stroke-opacity:1"
       d="m 108.00783,215.27449 c -0.90086,-0.96708 -1.72354,-1.85231 -2.44626,-2.63068 M 94.787019,189.84477 c 0.484982,-1.10133 1.169282,-2.21844 2.089499,-3.34408 8.288802,-10.13918 18.517492,-3.62591 22.396682,-0.31205 1.1863,1.01344 3.64049,3.17076 7.47055,7.12576 m 15.49555,16.21781 c 2.40223,2.49577 8.50796,8.66605 10.69757,10.82138 5.7251,5.6355 7.68807,14.87713 2.30681,20.70599 -5.38126,5.82887 -13.44121,6.50894 -19.49482,2.17284 -2.1259,-1.52275 -6.43544,-5.70251 -11.27341,-10.63537 m -23.66568,13.09302 c 2.44214,1.45512 5.35383,2.12581 8.10372,1.9684 14.51451,-0.83083 18.29636,-17.37469 17.36281,-36.47814 -10.03043,0.56924 -18.24758,3.14974 -23.73588,7.60843 m 23.73588,-7.60843 c -1.57052,-19.40517 1.13519,-31.70232 18.99457,-30.94097 5.50901,0.23485 11.99992,6.66436 11.96095,14.30523 -0.0836,16.39123 -20.4209,15.76269 -30.95552,16.63574 z" />
    <ellipse
       style="fill:#ffffff;fill-opacity:1;stroke:none;stroke-width:4;stroke-linecap:round;stroke-linejoin:round;stroke-miterlimit:0;stroke-dasharray:none;stroke-opacity:1;stop-color:#000000"
       id="path1863"
       cx="54.238041"
       cy="109.26478"
       rx="2.6694338"
       ry="2.7301028" />
    <ellipse
       style="fill:#ffffff;fill-opacity:1;stroke:none;stroke-width:4;stroke-linecap:round;stroke-linejoin:round;stroke-miterlimit:0;stroke-dasharray:none;stroke-opacity:1;stop-color:#000000"
       id="path1863-5"
       cx="52.781986"
       cy="121.45924"
       rx="2.6694338"
       ry="2.7301028" />
  </g>
</svg>
