<svg version="1.1" viewBox="0.0 0.0 242.31233595800524 194.2257217847769" fill="none" stroke="none" stroke-linecap="square" stroke-miterlimit="10" xmlns:xlink="http://www.w3.org/1999/xlink" xmlns="http://www.w3.org/2000/svg"><clipPath id="p.0"><path d="m0 0l242.31233 0l0 194.22572l-242.31233 0l0 -194.22572z" clip-rule="nonzero"/></clipPath><g clip-path="url(#p.0)"><path fill="#000000" fill-opacity="0.0" d="m0 0l242.31233 0l0 194.22572l-242.31233 0z" fill-rule="evenodd"/><path fill="#000000" fill-opacity="0.0" d="m25.614174 58.645668l0 0c0 -9.958519 8.072975 -18.031494 18.031494 -18.031494l0 0c4.7822495 0 9.368633 1.8997421 12.750195 5.2813034c3.3815613 3.3815613 5.2813034 7.9679413 5.2813034 12.750191l0 0c0 9.958519 -8.072975 18.031494 -18.031498 18.031494l0 0c-9.958519 0 -18.031494 -8.072975 -18.031494 -18.031494z" fill-rule="evenodd"/><path stroke="#000000" stroke-width="1.0" stroke-linejoin="round" stroke-linecap="butt" d="m25.614174 58.645668l0 0c0 -9.958519 8.072975 -18.031494 18.031494 -18.031494l0 0c4.7822495 0 9.368633 1.8997421 12.750195 5.2813034c3.3815613 3.3815613 5.2813034 7.9679413 5.2813034 12.750191l0 0c0 9.958519 -8.072975 18.031494 -18.031498 18.031494l0 0c-9.958519 0 -18.031494 -8.072975 -18.031494 -18.031494z" fill-rule="evenodd"/><path fill="#000000" fill-opacity="0.0" d="m25.614174 114.87664l0 0c0 -9.958519 8.072975 -18.031494 18.031494 -18.031494l0 0c4.7822495 0 9.368633 1.8997421 12.750195 5.2813034c3.3815613 3.3815613 5.2813034 7.9679413 5.2813034 12.750191l0 0c0 9.958519 -8.072975 18.031502 -18.031498 18.031502l0 0c-9.958519 0 -18.031494 -8.072983 -18.031494 -18.031502z" fill-rule="evenodd"/><path stroke="#000000" stroke-width="1.0" stroke-linejoin="round" stroke-linecap="butt" d="m25.614174 114.87664l0 0c0 -9.958519 8.072975 -18.031494 18.031494 -18.031494l0 0c4.7822495 0 9.368633 1.8997421 12.750195 5.2813034c3.3815613 3.3815613 5.2813034 7.9679413 5.2813034 12.750191l0 0c0 9.958519 -8.072975 18.031502 -18.031498 18.031502l0 0c-9.958519 0 -18.031494 -8.072983 -18.031494 -18.031502z" fill-rule="evenodd"/><path fill="#000000" fill-opacity="0.0" d="m25.614174 171.1076l0 0c0 -9.958511 8.072975 -18.031494 18.031494 -18.031494l0 0c4.7822495 0 9.368633 1.8997498 12.750195 5.281311c3.3815613 3.3815613 5.2813034 7.9679413 5.2813034 12.750183l0 0c0 9.958527 -8.072975 18.03151 -18.031498 18.03151l0 0c-9.958519 0 -18.031494 -8.072983 -18.031494 -18.03151z" fill-rule="evenodd"/><path stroke="#000000" stroke-width="1.0" stroke-linejoin="round" stroke-linecap="butt" d="m25.614174 171.1076l0 0c0 -9.958511 8.072975 -18.031494 18.031494 -18.031494l0 0c4.7822495 0 9.368633 1.8997498 12.750195 5.281311c3.3815613 3.3815613 5.2813034 7.9679413 5.2813034 12.750183l0 0c0 9.958527 -8.072975 18.03151 -18.031498 18.03151l0 0c-9.958519 0 -18.031494 -8.072983 -18.031494 -18.03151z" fill-rule="evenodd"/><path fill="#000000" fill-opacity="0.0" d="m103.60105 86.761154l0 0c0 -9.958519 8.072975 -18.031494 18.031494 -18.031494l0 0c4.7822495 0 9.368629 1.8997421 12.750191 5.2813034c3.3815613 3.3815613 5.281311 7.9679413 5.281311 12.750191l0 0c0 9.958519 -8.072983 18.031494 -18.031502 18.031494l0 0c-9.958519 0 -18.031494 -8.072975 -18.031494 -18.031494z" fill-rule="evenodd"/><path stroke="#000000" stroke-width="1.0" stroke-linejoin="round" stroke-linecap="butt" d="m103.60105 86.761154l0 0c0 -9.958519 8.072975 -18.031494 18.031494 -18.031494l0 0c4.7822495 0 9.368629 1.8997421 12.750191 5.2813034c3.3815613 3.3815613 5.281311 7.9679413 5.281311 12.750191l0 0c0 9.958519 -8.072983 18.031494 -18.031502 18.031494l0 0c-9.958519 0 -18.031494 -8.072975 -18.031494 -18.031494z" fill-rule="evenodd"/><path fill="#000000" fill-opacity="0.0" d="m103.60105 142.99213l0 0c0 -9.958527 8.072975 -18.031494 18.031494 -18.031494l0 0c4.7822495 0 9.368629 1.8997421 12.750191 5.281296c3.3815613 3.3815613 5.281311 7.9679413 5.281311 12.750198l0 0c0 9.958527 -8.072983 18.031494 -18.031502 18.031494l0 0c-9.958519 0 -18.031494 -8.072968 -18.031494 -18.031494z" fill-rule="evenodd"/><path stroke="#000000" stroke-width="1.0" stroke-linejoin="round" stroke-linecap="butt" d="m103.60105 142.99213l0 0c0 -9.958527 8.072975 -18.031494 18.031494 -18.031494l0 0c4.7822495 0 9.368629 1.8997421 12.750191 5.281296c3.3815613 3.3815613 5.281311 7.9679413 5.281311 12.750198l0 0c0 9.958527 -8.072983 18.031494 -18.031502 18.031494l0 0c-9.958519 0 -18.031494 -8.072968 -18.031494 -18.031494z" fill-rule="evenodd"/><path fill="#000000" fill-opacity="0.0" d="m181.58792 58.645668l0 0c0 -9.958519 8.072983 -18.031494 18.031494 -18.031494l0 0c4.782257 0 9.368637 1.8997421 12.750198 5.2813034c3.3815613 3.3815613 5.281311 7.9679413 5.281311 12.750191l0 0c0 9.958519 -8.072983 18.031494 -18.03151 18.031494l0 0c-9.958511 0 -18.031494 -8.072975 -18.031494 -18.031494z" fill-rule="evenodd"/><path stroke="#000000" stroke-width="1.0" stroke-linejoin="round" stroke-linecap="butt" d="m181.58792 58.645668l0 0c0 -9.958519 8.072983 -18.031494 18.031494 -18.031494l0 0c4.782257 0 9.368637 1.8997421 12.750198 5.2813034c3.3815613 3.3815613 5.281311 7.9679413 5.281311 12.750191l0 0c0 9.958519 -8.072983 18.031494 -18.03151 18.031494l0 0c-9.958511 0 -18.031494 -8.072975 -18.031494 -18.031494z" fill-rule="evenodd"/><path fill="#000000" fill-opacity="0.0" d="m181.58792 114.87664l0 0c0 -9.958519 8.072983 -18.031494 18.031494 -18.031494l0 0c4.782257 0 9.368637 1.8997421 12.750198 5.2813034c3.3815613 3.3815613 5.281311 7.9679413 5.281311 12.750191l0 0c0 9.958519 -8.072983 18.031502 -18.03151 18.031502l0 0c-9.958511 0 -18.031494 -8.072983 -18.031494 -18.031502z" fill-rule="evenodd"/><path stroke="#000000" stroke-width="1.0" stroke-linejoin="round" stroke-linecap="butt" d="m181.58792 114.87664l0 0c0 -9.958519 8.072983 -18.031494 18.031494 -18.031494l0 0c4.782257 0 9.368637 1.8997421 12.750198 5.2813034c3.3815613 3.3815613 5.281311 7.9679413 5.281311 12.750191l0 0c0 9.958519 -8.072983 18.031502 -18.03151 18.031502l0 0c-9.958511 0 -18.031494 -8.072983 -18.031494 -18.031502z" fill-rule="evenodd"/><path fill="#000000" fill-opacity="0.0" d="m181.58792 171.1076l0 0c0 -9.958511 8.072983 -18.031494 18.031494 -18.031494l0 0c4.782257 0 9.368637 1.8997498 12.750198 5.281311c3.3815613 3.3815613 5.281311 7.9679413 5.281311 12.750183l0 0c0 9.958527 -8.072983 18.03151 -18.03151 18.03151l0 0c-9.958511 0 -18.031494 -8.072983 -18.031494 -18.03151z" fill-rule="evenodd"/><path stroke="#000000" stroke-width="1.0" stroke-linejoin="round" stroke-linecap="butt" d="m181.58792 171.1076l0 0c0 -9.958511 8.072983 -18.031494 18.031494 -18.031494l0 0c4.782257 0 9.368637 1.8997498 12.750198 5.281311c3.3815613 3.3815613 5.281311 7.9679413 5.281311 12.750183l0 0c0 9.958527 -8.072983 18.03151 -18.03151 18.03151l0 0c-9.958511 0 -18.031494 -8.072983 -18.031494 -18.03151z" fill-rule="evenodd"/><path fill="#000000" fill-opacity="0.0" d="m61.677166 58.645668l41.92126 28.125984" fill-rule="evenodd"/><path stroke="#000000" stroke-width="1.0" stroke-linejoin="round" stroke-linecap="butt" d="m61.677166 58.645668l36.93877 24.783112" fill-rule="evenodd"/><path fill="#000000" stroke="#000000" stroke-width="1.0" stroke-linecap="butt" d="m97.69568 84.80041l4.688759 1.1567535l-2.8482437 -3.9000015z" fill-rule="evenodd"/><path fill="#000000" fill-opacity="0.0" d="m61.677166 58.645668l41.92126 84.34646" fill-rule="evenodd"/><path stroke="#000000" stroke-width="1.0" stroke-linejoin="round" stroke-linecap="butt" d="m61.677166 58.645668l39.250828 78.97349" fill-rule="evenodd"/><path fill="#000000" stroke="#000000" stroke-width="1.0" stroke-linecap="butt" d="m99.448875 138.3543l3.4989014 3.3287048l-0.5406647 -4.7989807z" fill-rule="evenodd"/><path fill="#000000" fill-opacity="0.0" d="m61.677166 114.87664l41.92126 -28.125984" fill-rule="evenodd"/><path stroke="#000000" stroke-width="1.0" stroke-linejoin="round" stroke-linecap="butt" d="m61.677166 114.87664l36.93877 -24.78312" fill-rule="evenodd"/><path fill="#000000" stroke="#000000" stroke-width="1.0" stroke-linecap="butt" d="m99.536194 91.46515l2.8482437 -3.9000015l-4.688759 1.1567612z" fill-rule="evenodd"/><path fill="#000000" fill-opacity="0.0" d="m61.677166 114.87664l41.92126 28.125984" fill-rule="evenodd"/><path stroke="#000000" stroke-width="1.0" stroke-linejoin="round" stroke-linecap="butt" d="m61.677166 114.87664l36.93877 24.78312" fill-rule="evenodd"/><path fill="#000000" stroke="#000000" stroke-width="1.0" stroke-linecap="butt" d="m97.69568 141.03137l4.688759 1.1567535l-2.8482437 -3.899994z" fill-rule="evenodd"/><path fill="#000000" fill-opacity="0.0" d="m61.677166 171.1076l41.92126 -84.34645" fill-rule="evenodd"/><path stroke="#000000" stroke-width="1.0" stroke-linejoin="round" stroke-linecap="butt" d="m61.677166 171.1076l39.250828 -78.97348" fill-rule="evenodd"/><path fill="#000000" stroke="#000000" stroke-width="1.0" stroke-linecap="butt" d="m102.40711 92.86926l0.5406647 -4.7989807l-3.4989014 3.3286972z" fill-rule="evenodd"/><path fill="#000000" fill-opacity="0.0" d="m61.677166 171.1076l41.92126 -28.125977" fill-rule="evenodd"/><path stroke="#000000" stroke-width="1.0" stroke-linejoin="round" stroke-linecap="butt" d="m61.677166 171.1076l36.93877 -24.783112" fill-rule="evenodd"/><path fill="#000000" stroke="#000000" stroke-width="1.0" stroke-linecap="butt" d="m99.536194 147.69612l2.8482437 -3.9000092l-4.688759 1.1567688z" fill-rule="evenodd"/><path fill="#000000" fill-opacity="0.0" d="m139.66405 86.761154l41.92125 -28.125984" fill-rule="evenodd"/><path stroke="#000000" stroke-width="1.0" stroke-linejoin="round" stroke-linecap="butt" d="m139.66405 86.761154l36.938766 -24.783112" fill-rule="evenodd"/><path fill="#000000" stroke="#000000" stroke-width="1.0" stroke-linecap="butt" d="m177.52307 63.349667l2.8482513 -3.9000053l-4.6887665 1.1567574z" fill-rule="evenodd"/><path fill="#000000" fill-opacity="0.0" d="m139.66405 86.761154l41.92125 28.125984" fill-rule="evenodd"/><path stroke="#000000" stroke-width="1.0" stroke-linejoin="round" stroke-linecap="butt" d="m139.66405 86.761154l36.938766 24.78312" fill-rule="evenodd"/><path fill="#000000" stroke="#000000" stroke-width="1.0" stroke-linecap="butt" d="m175.68256 112.91589l4.6887665 1.1567535l-2.8482513 -3.9000015z" fill-rule="evenodd"/><path fill="#000000" fill-opacity="0.0" d="m139.66405 86.761154l41.92125 84.34645" fill-rule="evenodd"/><path stroke="#000000" stroke-width="1.0" stroke-linejoin="round" stroke-linecap="butt" d="m139.66405 86.761154l39.25081 78.97348" fill-rule="evenodd"/><path fill="#000000" stroke="#000000" stroke-width="1.0" stroke-linecap="butt" d="m177.43575 166.46979l3.4989014 3.3287048l-0.5406647 -4.798996z" fill-rule="evenodd"/><path fill="#000000" fill-opacity="0.0" d="m139.66405 142.99213l41.92125 28.125977" fill-rule="evenodd"/><path stroke="#000000" stroke-width="1.0" stroke-linejoin="round" stroke-linecap="butt" d="m139.66405 142.99213l36.938766 24.783112" fill-rule="evenodd"/><path fill="#000000" stroke="#000000" stroke-width="1.0" stroke-linecap="butt" d="m175.68256 169.14687l4.6887665 1.1567535l-2.8482513 -3.9000092z" fill-rule="evenodd"/><path fill="#000000" fill-opacity="0.0" d="m139.66405 142.99213l41.92125 -28.125984" fill-rule="evenodd"/><path stroke="#000000" stroke-width="1.0" stroke-linejoin="round" stroke-linecap="butt" d="m139.66405 142.99213l36.938766 -24.78312" fill-rule="evenodd"/><path fill="#000000" stroke="#000000" stroke-width="1.0" stroke-linecap="butt" d="m177.52307 119.580635l2.8482513 -3.9000015l-4.6887665 1.1567535z" fill-rule="evenodd"/><path fill="#000000" fill-opacity="0.0" d="m139.66405 142.99213l41.92125 -84.34646" fill-rule="evenodd"/><path stroke="#000000" stroke-width="1.0" stroke-linejoin="round" stroke-linecap="butt" d="m139.66405 142.99213l39.25081 -78.97349" fill-rule="evenodd"/><path fill="#000000" stroke="#000000" stroke-width="1.0" stroke-linecap="butt" d="m180.39398 64.75378l0.5406647 -4.7989807l-3.4989014 3.328701z" fill-rule="evenodd"/><path fill="#000000" fill-opacity="0.0" d="m25.614174 37.67454c0 -2.6961937 2.1856956 -4.8818893 4.8818893 -4.8818893l8.267715 0c2.6961937 0 4.8818893 -2.1856976 4.8818893 -4.8818913l0 0c0 2.6961937 2.1856995 4.8818913 4.8818893 4.8818913l8.267719 0l0 0c2.6961937 0 4.8818893 2.1856956 4.8818893 4.8818893z" fill-rule="evenodd"/><path fill="#000000" fill-opacity="0.0" d="m25.614174 37.67454c0 -2.6961937 2.1856956 -4.8818893 4.8818893 -4.8818893l8.267715 0c2.6961937 0 4.8818893 -2.1856976 4.8818893 -4.8818913l0 0c0 2.6961937 2.1856995 4.8818913 4.8818893 4.8818913l8.267719 0l0 0c2.6961937 0 4.8818893 2.1856956 4.8818893 4.8818893" fill-rule="evenodd"/><path stroke="#000000" stroke-width="1.0" stroke-linejoin="round" stroke-linecap="butt" d="m25.614174 37.67454c0 -2.6961937 2.1856956 -4.8818893 4.8818893 -4.8818893l8.267715 0c2.6961937 0 4.8818893 -2.1856976 4.8818893 -4.8818913l0 0c0 2.6961937 2.1856995 4.8818913 4.8818893 4.8818913l8.267719 0l0 0c2.6961937 0 4.8818893 2.1856956 4.8818893 4.8818893" fill-rule="evenodd"/><path fill="#000000" fill-opacity="0.0" d="m-3.519685E-4 5.4304465E-4l100.31496 0l0 33.92126l-100.31496 0z" fill-rule="evenodd"/><path fill="#000000" d="m13.249648 20.520544l-3.453125 0l0 -0.890625l1.15625 0l0 -6.937501l-1.15625 0l0 -0.890625l3.453125 0l0 0.890625l-1.140625 0l0 6.937501l1.140625 0l0 0.890625zm7.3632803 0l-1.109375 0l0 -3.734375q0 -0.4375 -0.0625 -0.82812595q-0.046875 -0.40625 -0.1875 -0.625q-0.140625 -0.25 -0.421875 -0.359375q-0.265625 -0.125 -0.703125 -0.125q-0.453125 0 -0.953125 0.21875q-0.484375 0.21875 -0.9375 0.5625l0 4.890626l-1.109374 0l0 -6.546876l1.109374 0l0 0.734375q0.515625 -0.4375 1.0625 -0.671875q0.546875 -0.25 1.140625 -0.25q1.046875 0 1.609375 0.640625q0.5625 0.640625 0.5625 1.843751l0 4.25zm7.875 -3.359375q0 0.796875 -0.234375 1.46875q-0.21875 0.65625 -0.640625 1.109375q-0.390625 0.4375 -0.921875 0.671875q-0.515625 0.234375 -1.09375 0.234375q-0.515625 0 -0.9375 -0.109375q-0.40625 -0.109375 -0.828125 -0.34375l0 2.75l-1.109375 0l0 -8.968751l1.109375 0l0 0.6875q0.4375 -0.375 0.984375 -0.625q0.546875 -0.25 1.171875 -0.25q1.1875 0 1.84375 0.90625q0.65625 0.890625 0.65625 2.468751zm-1.140625 0.03125q0 -1.171875 -0.40625 -1.750001q-0.390625 -0.59375 -1.234375 -0.59375q-0.46875 0 -0.953125 0.203125q-0.484375 0.203125 -0.921875 0.53125l0 3.718751q0.46875 0.203125 0.796875 0.28125q0.34375 0.078125 0.765625 0.078125q0.921875 0 1.4375 -0.625q0.515625 -0.625 0.515625 -1.84375zm8.289064 3.328125l-1.109375 0l0 -0.734375q-0.546875 0.453125 -1.0625 0.6875q-0.515625 0.234375 -1.125 0.234375q-1.0312519 0 -1.6093769 -0.625q-0.578125 -0.640625 -0.578125 -1.859375l0 -4.250001l1.109375 0l0 3.734376q0 0.484375 0.046875 0.84375q0.046875 0.359375 0.203125 0.609375q0.15625 0.25 0.40625 0.375q0.2500019 0.109375 0.7343769 0.109375q0.421875 0 0.921875 -0.21875q0.515625 -0.21875 0.953125 -0.5625l0 -4.890626l1.109375 0l0 6.546876zm5.5625 -0.0625q-0.3125 0.09375 -0.6875 0.140625q-0.359375 0.046875 -0.640625 0.046875q-1.0 0 -1.53125 -0.53125q-0.515625 -0.546875 -0.515625 -1.734375l0 -3.484376l-0.75 0l0 -0.921875l0.75 0l0 -1.875l1.09375 0l0 1.875l2.28125 0l0 0.921875l-2.28125 0l0 2.984376q0 0.515625 0.015625 0.8125q0.03125 0.28125 0.171875 0.53125q0.140625 0.234375 0.359375 0.34375q0.234375 0.109375 0.6875 0.109375q0.265625 0 0.5625 -0.078125q0.296875 -0.078125 0.421875 -0.125l0.0625 0l0 0.984375zm6.6660156 0.0625l-1.109375 0l0 -9.125001l1.109375 0l0 9.125001zm7.2617188 0l-1.09375 0l0 -0.703125q-0.15625 0.109375 -0.40625 0.296875q-0.234375 0.171875 -0.46875 0.265625q-0.28125 0.140625 -0.640625 0.234375q-0.359375 0.09375 -0.84375 0.09375q-0.875 0 -1.5 -0.578125q-0.609375 -0.59375 -0.609375 -1.515625q0 -0.734375 0.3125 -1.1875q0.328125 -0.46875 0.921875 -0.734375q0.59375 -0.265625 1.421875 -0.359375q0.84375 -0.09375 1.8125 -0.140625l0 -0.171875q0 -0.37500095 -0.140625 -0.60937595q-0.125 -0.25 -0.375 -0.390625q-0.234375 -0.140625 -0.5625 -0.1875q-0.328125 -0.046875 -0.6875 -0.046875q-0.421875 0 -0.96875 0.125q-0.53125 0.109375 -1.09375 0.328125l-0.0625 0l0 -1.125q0.328125 -0.09375 0.9375 -0.1875q0.609375 -0.109375 1.203125 -0.109375q0.6875 0 1.203125 0.125q0.515625 0.109375 0.890625 0.375q0.359375 0.265625 0.546875 0.703125q0.203125 0.421875 0.203125 1.062501l0 4.4375zm-1.09375 -1.609375l0 -1.828125q-0.5 0.03125 -1.1875 0.09375q-0.6875 0.0625 -1.078125 0.171875q-0.484375 0.125 -0.78125 0.421875q-0.28125 0.28125 -0.28125 0.78125q0 0.5625 0.328125 0.84375q0.34375 0.28125 1.046875 0.28125q0.578125 0 1.0625 -0.21875q0.484375 -0.234375 0.890625 -0.546875zm8.878906 -4.937501l-3.828125 8.968751l-1.171875 0l1.21875 -2.734375l-2.609375 -6.234376l1.1875 0l2.015625 4.859376l2.03125 -4.859376l1.15625 0zm6.9140625 3.390626l-4.828125 0q0 0.59375 0.1875 1.046875q0.1875 0.453125 0.5 0.734375q0.296875 0.28125 0.71875 0.421875q0.421875 0.140625 0.921875 0.140625q0.671875 0 1.34375 -0.265625q0.6875 -0.265625 0.96875 -0.515625l0.0625 0l0 1.1875q-0.5625 0.234375 -1.140625 0.40625q-0.578125 0.15625 -1.21875 0.15625q-1.625 0 -2.546875 -0.875q-0.90625 -0.890625 -0.90625 -2.515625q0 -1.609376 0.875 -2.546876q0.875 -0.953125 2.296875 -0.953125q1.328125 0 2.046875 0.78125q0.71875 0.765625 0.71875 2.203126l0 0.59375zm-1.078125 -0.84375q0 -0.87500095 -0.4375 -1.343751q-0.421875 -0.46875 -1.296875 -0.46875q-0.890625 0 -1.421875 0.515625q-0.515625 0.515625 -0.59375 1.296876l3.75 0zm6.8359375 -1.343751l-0.0625 0q-0.25 -0.0625 -0.484375 -0.078125q-0.21875 -0.03125 -0.546875 -0.03125q-0.5 0 -0.984375 0.234375q-0.46875 0.21875 -0.90625 0.578125l0 4.640626l-1.109375 0l0 -6.546876l1.109375 0l0 0.96875q0.65625 -0.53125 1.15625 -0.75q0.5 -0.21875 1.015625 -0.21875q0.296875 0 0.421875 0.015625q0.125 0.015625 0.390625 0.0625l0 1.125z" fill-rule="nonzero"/><path fill="#000000" fill-opacity="0.0" d="m181.4616 37.674892c0 -2.6961937 2.1856995 -4.8818893 4.8818817 -4.8818893l8.267715 0c2.6961975 0 4.881897 -2.1856976 4.881897 -4.8818893l0 0c0 2.6961918 2.1856995 4.8818893 4.8818817 4.8818893l8.267731 0l0 0c2.6961823 0 4.8818817 2.1856956 4.8818817 4.8818893z" fill-rule="evenodd"/><path fill="#000000" fill-opacity="0.0" d="m181.4616 37.674892c0 -2.6961937 2.1856995 -4.8818893 4.8818817 -4.8818893l8.267715 0c2.6961975 0 4.881897 -2.1856976 4.881897 -4.8818893l0 0c0 2.6961918 2.1856995 4.8818893 4.8818817 4.8818893l8.267731 0l0 0c2.6961823 0 4.8818817 2.1856956 4.8818817 4.8818893" fill-rule="evenodd"/><path stroke="#000000" stroke-width="1.0" stroke-linejoin="round" stroke-linecap="butt" d="m181.4616 37.674892c0 -2.6961937 2.1856995 -4.8818893 4.8818817 -4.8818893l8.267715 0c2.6961975 0 4.881897 -2.1856976 4.881897 -4.8818893l0 0c0 2.6961918 2.1856995 4.8818893 4.8818817 4.8818893l8.267731 0l0 0c2.6961823 0 4.8818817 2.1856956 4.8818817 4.8818893" fill-rule="evenodd"/><path fill="#000000" fill-opacity="0.0" d="m155.84706 8.950131E-4l100.31496 0l0 33.921257l-100.31496 0z" fill-rule="evenodd"/><path fill="#000000" d="m172.51894 12.802145q0.53125 0.578125 0.8125 1.4375q0.296875 0.84375 0.296875 1.921875q0 1.078125 -0.296875 1.9375q-0.28125 0.84375 -0.8125 1.40625q-0.53125 0.59375 -1.265625 0.90625q-0.734375 0.296875 -1.6875 0.296875q-0.921875 0 -1.671875 -0.296875q-0.75 -0.3125 -1.28125 -0.90625q-0.515625 -0.578125 -0.8125 -1.421875q-0.28125 -0.84375 -0.28125 -1.921875q0 -1.0625 0.28125 -1.90625q0.28125 -0.859375 0.828125 -1.453125q0.515625 -0.578125 1.28125 -0.875q0.765625 -0.3125 1.65625 -0.3125q0.9375 0 1.6875 0.3125q0.75 0.296875 1.265625 0.875zm-0.09375 3.359375q0 -1.703125 -0.765625 -2.625q-0.765625 -0.921875 -2.078125 -0.921875q-1.328125 0 -2.09375 0.921875q-0.765625 0.921875 -0.765625 2.625q0 1.71875 0.765625 2.625q0.78125 0.90625 2.09375 0.90625q1.296875 0 2.0625 -0.90625q0.78125 -0.90625 0.78125 -2.625zm8.3828125 4.359375l-1.109375 0l0 -0.734375q-0.546875 0.453125 -1.0625 0.6875q-0.515625 0.234375 -1.125 0.234375q-1.03125 0 -1.609375 -0.625q-0.578125 -0.640625 -0.578125 -1.859375l0 -4.25l1.109375 0l0 3.734375q0 0.484375 0.046875 0.84375q0.046875 0.359375 0.203125 0.609375q0.15625 0.25 0.40625 0.375q0.25 0.109375 0.734375 0.109375q0.421875 0 0.921875 -0.21875q0.515625 -0.21875 0.953125 -0.5625l0 -4.890625l1.109375 0l0 6.546875zm5.5625 -0.0625q-0.3125 0.09375 -0.6875 0.140625q-0.359375 0.046875 -0.640625 0.046875q-1.0 0 -1.53125 -0.53125q-0.515625 -0.546875 -0.515625 -1.734375l0 -3.484375l-0.75 0l0 -0.921875l0.75 0l0 -1.875l1.09375 0l0 1.875l2.28125 0l0 0.921875l-2.28125 0l0 2.984375q0 0.515625 0.015625 0.8125q0.03125 0.28125 0.171875 0.53125q0.140625 0.234375 0.359375 0.34375q0.234375 0.109375 0.6875 0.109375q0.265625 0 0.5625 -0.078125q0.296875 -0.078125 0.421875 -0.125l0.0625 0l0 0.984375zm7.0878906 -3.296875q0 0.796875 -0.234375 1.46875q-0.21875 0.65625 -0.640625 1.109375q-0.390625 0.4375 -0.921875 0.671875q-0.515625 0.234375 -1.09375 0.234375q-0.515625 0 -0.9375 -0.109375q-0.40625 -0.109375 -0.828125 -0.34375l0 2.75l-1.109375 0l0 -8.96875l1.109375 0l0 0.6875q0.4375 -0.375 0.984375 -0.625q0.546875 -0.25 1.171875 -0.25q1.1875 0 1.84375 0.90625q0.65625 0.890625 0.65625 2.46875zm-1.140625 0.03125q0 -1.171875 -0.40625 -1.75q-0.390625 -0.59375 -1.234375 -0.59375q-0.46875 0 -0.953125 0.203125q-0.484375 0.203125 -0.921875 0.53125l0 3.71875q0.46875 0.203125 0.796875 0.28125q0.34375 0.078125 0.765625 0.078125q0.921875 0 1.4375 -0.625q0.515625 -0.625 0.515625 -1.84375zm8.2890625 3.328125l-1.109375 0l0 -0.734375q-0.546875 0.453125 -1.0625 0.6875q-0.515625 0.234375 -1.125 0.234375q-1.03125 0 -1.609375 -0.625q-0.578125 -0.640625 -0.578125 -1.859375l0 -4.25l1.109375 0l0 3.734375q0 0.484375 0.046875 0.84375q0.046875 0.359375 0.203125 0.609375q0.15625 0.25 0.40625 0.375q0.25 0.109375 0.734375 0.109375q0.421875 0 0.921875 -0.21875q0.515625 -0.21875 0.953125 -0.5625l0 -4.890625l1.109375 0l0 6.546875zm5.5625 -0.0625q-0.3125 0.09375 -0.6875 0.140625q-0.359375 0.046875 -0.640625 0.046875q-1.0 0 -1.53125 -0.53125q-0.515625 -0.546875 -0.515625 -1.734375l0 -3.484375l-0.75 0l0 -0.921875l0.75 0l0 -1.875l1.09375 0l0 1.875l2.28125 0l0 0.921875l-2.28125 0l0 2.984375q0 0.515625 0.015625 0.8125q0.03125 0.28125 0.171875 0.53125q0.140625 0.234375 0.359375 0.34375q0.234375 0.109375 0.6875 0.109375q0.265625 0 0.5625 -0.078125q0.296875 -0.078125 0.421875 -0.125l0.0625 0l0 0.984375zm6.6660156 0.0625l-1.109375 0l0 -9.125l1.109375 0l0 9.125zm7.2617188 0l-1.09375 0l0 -0.703125q-0.15625 0.109375 -0.40625 0.296875q-0.234375 0.171875 -0.46875 0.265625q-0.28125 0.140625 -0.640625 0.234375q-0.359375 0.09375 -0.84375 0.09375q-0.875 0 -1.5 -0.578125q-0.609375 -0.59375 -0.609375 -1.515625q0 -0.734375 0.3125 -1.1875q0.328125 -0.46875 0.921875 -0.734375q0.59375 -0.265625 1.421875 -0.359375q0.84375 -0.09375 1.8125 -0.140625l0 -0.171875q0 -0.375 -0.140625 -0.609375q-0.125 -0.25 -0.375 -0.390625q-0.234375 -0.140625 -0.5625 -0.1875q-0.328125 -0.046875 -0.6875 -0.046875q-0.421875 0 -0.96875 0.125q-0.53125 0.109375 -1.09375 0.328125l-0.0625 0l0 -1.125q0.328125 -0.09375 0.9375 -0.1875q0.609375 -0.109375 1.203125 -0.109375q0.6875 0 1.203125 0.125q0.515625 0.109375 0.890625 0.375q0.359375 0.265625 0.546875 0.703125q0.203125 0.421875 0.203125 1.0625l0 4.4375zm-1.09375 -1.609375l0 -1.828125q-0.5 0.03125 -1.1875 0.09375q-0.6875 0.0625 -1.078125 0.171875q-0.484375 0.125 -0.78125 0.421875q-0.28125 0.28125 -0.28125 0.78125q0 0.5625 0.328125 0.84375q0.34375 0.28125 1.046875 0.28125q0.578125 0 1.0625 -0.21875q0.484375 -0.234375 0.890625 -0.546875zm8.878906 -4.9375l-3.828125 8.96875l-1.171875 0l1.21875 -2.734375l-2.609375 -6.234375l1.1875 0l2.015625 4.859375l2.03125 -4.859375l1.15625 0zm6.9140625 3.390625l-4.828125 0q0 0.59375 0.1875 1.046875q0.1875 0.453125 0.5 0.734375q0.296875 0.28125 0.71875 0.421875q0.421875 0.140625 0.921875 0.140625q0.671875 0 1.34375 -0.265625q0.6875 -0.265625 0.96875 -0.515625l0.0625 0l0 1.1875q-0.5625 0.234375 -1.140625 0.40625q-0.578125 0.15625 -1.21875 0.15625q-1.625 0 -2.546875 -0.875q-0.90625 -0.890625 -0.90625 -2.515625q0 -1.609375 0.875 -2.546875q0.875 -0.953125 2.296875 -0.953125q1.328125 0 2.046875 0.78125q0.71875 0.765625 0.71875 2.203125l0 0.59375zm-1.078125 -0.84375q0 -0.875 -0.4375 -1.34375q-0.421875 -0.46875 -1.296875 -0.46875q-0.890625 0 -1.421875 0.515625q-0.515625 0.515625 -0.59375 1.296875l3.75 0zm6.8359375 -1.34375l-0.0625 0q-0.25 -0.0625 -0.484375 -0.078125q-0.21875 -0.03125 -0.546875 -0.03125q-0.5 0 -0.984375 0.234375q-0.46875 0.21875 -0.90625 0.578125l0 4.640625l-1.109375 0l0 -6.546875l1.109375 0l0 0.96875q0.65625 -0.53125 1.15625 -0.75q0.5 -0.21875 1.015625 -0.21875q0.296875 0 0.421875 0.015625q0.125 0.015625 0.390625 0.0625l0 1.125z" fill-rule="nonzero"/><path fill="#000000" fill-opacity="0.0" d="m1.1102362 58.645668l24.503937 0" fill-rule="evenodd"/><path stroke="#000000" stroke-width="1.0" stroke-linejoin="round" stroke-linecap="butt" d="m1.1102362 58.645668l18.503937 0" fill-rule="evenodd"/><path fill="#000000" stroke="#000000" stroke-width="1.0" stroke-linecap="butt" d="m19.614174 60.2974l4.5380974 -1.6517334l-4.5380974 -1.6517296z" fill-rule="evenodd"/><path fill="#000000" fill-opacity="0.0" d="m1.1076115 114.87664l24.503939 0" fill-rule="evenodd"/><path stroke="#000000" stroke-width="1.0" stroke-linejoin="round" stroke-linecap="butt" d="m1.1076115 114.87664l18.503939 0" fill-rule="evenodd"/><path fill="#000000" stroke="#000000" stroke-width="1.0" stroke-linecap="butt" d="m19.61155 116.52837l4.5380974 -1.6517334l-4.5380974 -1.6517334z" fill-rule="evenodd"/><path fill="#000000" fill-opacity="0.0" d="m1.1076115 171.1076l24.503939 0" fill-rule="evenodd"/><path stroke="#000000" stroke-width="1.0" stroke-linejoin="round" stroke-linecap="butt" d="m1.1076115 171.1076l18.503939 0" fill-rule="evenodd"/><path fill="#000000" stroke="#000000" stroke-width="1.0" stroke-linecap="butt" d="m19.61155 172.75934l4.5380974 -1.6517334l-4.5380974 -1.6517334z" fill-rule="evenodd"/><path fill="#000000" fill-opacity="0.0" d="m139.6637 166.22607c0 2.6961975 -2.1856995 4.8818817 -4.881897 4.8818817l-8.267715 0c-2.6961899 0 -4.8818893 2.1856995 -4.8818893 4.881897l0 0c0 -2.6961975 -2.1856995 -4.881897 -4.8818893 -4.881897l-8.267715 0l0 0c-2.6961975 0 -4.8818893 -2.1856842 -4.8818893 -4.8818817z" fill-rule="evenodd"/><path fill="#000000" fill-opacity="0.0" d="m139.6637 166.22607c0 2.6961975 -2.1856995 4.8818817 -4.881897 4.8818817l-8.267715 0c-2.6961899 0 -4.8818893 2.1856995 -4.8818893 4.881897l0 0c0 -2.6961975 -2.1856995 -4.881897 -4.8818893 -4.881897l-8.267715 0l0 0c-2.6961975 0 -4.8818893 -2.1856842 -4.8818893 -4.8818817" fill-rule="evenodd"/><path stroke="#000000" stroke-width="1.0" stroke-linejoin="round" stroke-linecap="butt" d="m139.6637 166.22607c0 2.6961975 -2.1856995 4.8818817 -4.881897 4.8818817l-8.267715 0c-2.6961899 0 -4.8818893 2.1856995 -4.8818893 4.881897l0 0c0 -2.6961975 -2.1856995 -4.881897 -4.8818893 -4.881897l-8.267715 0l0 0c-2.6961975 0 -4.8818893 -2.1856842 -4.8818893 -4.8818817" fill-rule="evenodd"/><path fill="#000000" fill-opacity="0.0" d="m76.09324 169.49312l100.314964 0l0 33.921265l-100.314964 0z" fill-rule="evenodd"/><path fill="#000000" d="m92.93699 190.01312l-1.15625 0l0 -4.265625l-4.359375 0l0 4.265625l-1.15625 0l0 -8.71875l1.15625 0l0 3.421875l4.359375 0l0 -3.421875l1.15625 0l0 8.71875zm3.4394531 -7.640625l-1.234375 0l0 -1.140625l1.234375 0l0 1.140625zm-0.0625 7.640625l-1.109375 0l0 -6.546875l1.109375 0l0 6.546875zm7.4804688 0l-1.09375 0l0 -0.6875q-0.484375 0.40625 -1.0 0.640625q-0.515625 0.234375 -1.109375 0.234375q-1.171875 0 -1.859375 -0.90625q-0.6875 -0.90625 -0.6875 -2.5q0 -0.84375 0.234375 -1.484375q0.234375 -0.65625 0.640625 -1.109375q0.390625 -0.453125 0.921875 -0.6875q0.53125 -0.234375 1.109375 -0.234375q0.515625 0 0.90625 0.109375q0.40625 0.109375 0.84375 0.34375l0 -2.84375l1.09375 0l0 9.125zm-1.09375 -1.609375l0 -3.765625q-0.453125 -0.1875 -0.8125 -0.265625q-0.34375 -0.078125 -0.75 -0.078125q-0.9375 0 -1.453125 0.640625q-0.515625 0.640625 -0.515625 1.828125q0 1.171875 0.390625 1.78125q0.40625 0.59375 1.296875 0.59375q0.46875 0 0.9375 -0.203125q0.484375 -0.203125 0.90625 -0.53125zm8.5703125 1.609375l-1.09375 0l0 -0.6875q-0.484375 0.40625 -1.0 0.640625q-0.515625 0.234375 -1.109375 0.234375q-1.171875 0 -1.859375 -0.90625q-0.6875 -0.90625 -0.6875 -2.5q0 -0.84375 0.234375 -1.484375q0.234375 -0.65625 0.640625 -1.109375q0.390625 -0.453125 0.921875 -0.6875q0.53125 -0.234375 1.109375 -0.234375q0.515625 0 0.90625 0.109375q0.40625 0.109375 0.84375 0.34375l0 -2.84375l1.09375 0l0 9.125zm-1.09375 -1.609375l0 -3.765625q-0.453125 -0.1875 -0.8125 -0.265625q-0.34375 -0.078125 -0.75 -0.078125q-0.9375 0 -1.453125 0.640625q-0.515625 0.640625 -0.515625 1.828125q0 1.171875 0.390625 1.78125q0.40625 0.59375 1.296875 0.59375q0.46875 0 0.9375 -0.203125q0.484375 -0.203125 0.90625 -0.53125zm8.7421875 -1.546875l-4.828125 0q0 0.59375 0.1875 1.046875q0.1875 0.453125 0.5 0.734375q0.296875 0.28125 0.71875 0.421875q0.421875 0.140625 0.921875 0.140625q0.671875 0 1.34375 -0.265625q0.6875 -0.265625 0.96875 -0.515625l0.0625 0l0 1.1875q-0.5625 0.234375 -1.140625 0.40625q-0.578125 0.15625 -1.21875 0.15625q-1.625 0 -2.546875 -0.875q-0.90625 -0.890625 -0.90625 -2.515625q0 -1.609375 0.875 -2.546875q0.875 -0.953125 2.296875 -0.953125q1.328125 0 2.046875 0.78125q0.71875 0.765625 0.71875 2.203125l0 0.59375zm-1.078125 -0.84375q0 -0.875 -0.4375 -1.34375q-0.421875 -0.46875 -1.296875 -0.46875q-0.890625 0 -1.421875 0.515625q-0.515625 0.515625 -0.59375 1.296875l3.75 0zm8.2265625 4.0l-1.109375 0l0 -3.734375q0 -0.4375 -0.0625 -0.828125q-0.046875 -0.40625 -0.1875 -0.625q-0.140625 -0.25 -0.421875 -0.359375q-0.265625 -0.125 -0.703125 -0.125q-0.453125 0 -0.953125 0.21875q-0.484375 0.21875 -0.9375 0.5625l0 4.890625l-1.109375 0l0 -6.546875l1.109375 0l0 0.734375q0.515625 -0.4375 1.0625 -0.671875q0.546875 -0.25 1.140625 -0.25q1.046875 0 1.609375 0.640625q0.5625 0.640625 0.5625 1.84375l0 4.25zm7.4531326 0l-1.109375 0l0 -9.125l1.109375 0l0 9.125zm7.2617188 0l-1.09375 0l0 -0.703125q-0.15625 0.109375 -0.40625 0.296875q-0.234375 0.171875 -0.46875 0.265625q-0.28125 0.140625 -0.640625 0.234375q-0.359375 0.09375 -0.84375 0.09375q-0.875 0 -1.5 -0.578125q-0.609375 -0.59375 -0.609375 -1.515625q0 -0.734375 0.3125 -1.1875q0.328125 -0.46875 0.921875 -0.734375q0.59375 -0.265625 1.421875 -0.359375q0.84375 -0.09375 1.8125 -0.140625l0 -0.171875q0 -0.375 -0.140625 -0.609375q-0.125 -0.25 -0.375 -0.390625q-0.234375 -0.140625 -0.5625 -0.1875q-0.328125 -0.046875 -0.6875 -0.046875q-0.421875 0 -0.96875 0.125q-0.53125 0.109375 -1.09375 0.328125l-0.0625 0l0 -1.125q0.328125 -0.09375 0.9375 -0.1875q0.609375 -0.109375 1.203125 -0.109375q0.6875 0 1.203125 0.125q0.515625 0.109375 0.890625 0.375q0.359375 0.265625 0.546875 0.703125q0.203125 0.421875 0.203125 1.0625l0 4.4375zm-1.09375 -1.609375l0 -1.828125q-0.5 0.03125 -1.1875 0.09375q-0.6875 0.0625 -1.078125 0.171875q-0.484375 0.125 -0.78125 0.421875q-0.28125 0.28125 -0.28125 0.78125q0 0.5625 0.328125 0.84375q0.34375 0.28125 1.046875 0.28125q0.578125 0 1.0625 -0.21875q0.484375 -0.234375 0.890625 -0.546875zm8.878906 -4.9375l-3.828125 8.96875l-1.171875 0l1.21875 -2.734375l-2.609375 -6.234375l1.1875 0l2.015625 4.859375l2.03125 -4.859375l1.15625 0zm6.9140625 3.390625l-4.828125 0q0 0.59375 0.1875 1.046875q0.1875 0.453125 0.5 0.734375q0.296875 0.28125 0.71875 0.421875q0.421875 0.140625 0.921875 0.140625q0.671875 0 1.34375 -0.265625q0.6875 -0.265625 0.96875 -0.515625l0.0625 0l0 1.1875q-0.5625 0.234375 -1.140625 0.40625q-0.578125 0.15625 -1.21875 0.15625q-1.625 0 -2.546875 -0.875q-0.90625 -0.890625 -0.90625 -2.515625q0 -1.609375 0.875 -2.546875q0.875 -0.953125 2.296875 -0.953125q1.328125 0 2.046875 0.78125q0.71875 0.765625 0.71875 2.203125l0 0.59375zm-1.078125 -0.84375q0 -0.875 -0.4375 -1.34375q-0.421875 -0.46875 -1.296875 -0.46875q-0.890625 0 -1.421875 0.515625q-0.515625 0.515625 -0.59375 1.296875l3.75 0zm6.8359375 -1.34375l-0.0625 0q-0.25 -0.0625 -0.484375 -0.078125q-0.21875 -0.03125 -0.546875 -0.03125q-0.5 0 -0.984375 0.234375q-0.46875 0.21875 -0.90625 0.578125l0 4.640625l-1.109375 0l0 -6.546875l1.109375 0l0 0.96875q0.65625 -0.53125 1.15625 -0.75q0.5 -0.21875 1.015625 -0.21875q0.296875 0 0.421875 0.015625q0.125 0.015625 0.390625 0.0625l0 1.125z" fill-rule="nonzero"/></g></svg>