<svg version="1.1" viewBox="0.0 0.0 497.501312335958 409.23359580052494" fill="none" stroke="none" stroke-linecap="square" stroke-miterlimit="10" xmlns:xlink="http://www.w3.org/1999/xlink" xmlns="http://www.w3.org/2000/svg"><clipPath id="p.0"><path d="m0 0l497.5013 0l0 409.23358l-497.5013 0l0 -409.23358z" clip-rule="nonzero"/></clipPath><g clip-path="url(#p.0)"><path fill="#000000" fill-opacity="0.0" d="m0 0l497.5013 0l0 409.23358l-497.5013 0z" fill-rule="evenodd"/><path fill="#000000" fill-opacity="0.0" d="m26.939632 368.1209l465.29132 0" fill-rule="evenodd"/><path stroke="#000000" stroke-width="3.0" stroke-linejoin="round" stroke-linecap="butt" d="m26.939632 368.1209l465.29132 0" fill-rule="evenodd"/><path fill="#000000" fill-opacity="0.0" d="m40.90551 2.351874l0 379.55905" fill-rule="evenodd"/><path stroke="#000000" stroke-width="3.0" stroke-linejoin="round" stroke-linecap="butt" d="m40.90551 2.351874l0 379.55905" fill-rule="evenodd"/><path fill="#ff0000" d="m88.29921 37.31747l0 0c0 -9.288822 7.5300827 -16.8189 16.818901 -16.8189l0 0c4.4606476 0 8.738602 1.771986 11.892754 4.9261417c3.1541595 3.1541557 4.92614 7.432106 4.92614 11.892757l0 0c0 9.288818 -7.530075 16.818897 -16.818893 16.818897l0 0c-9.288818 0 -16.818901 -7.530079 -16.818901 -16.818897z" fill-rule="evenodd"/><path fill="#0000ff" d="m83.04199 312.8214l0 0c0 -9.288849 7.5300827 -16.818909 16.818901 -16.818909l0 0c4.4606476 0 8.738602 1.7719727 11.892754 4.9261475c3.1541595 3.1541443 4.92614 7.4320984 4.92614 11.892761l0 0c0 9.288818 -7.530075 16.818878 -16.818893 16.818878l0 0c-9.288818 0 -16.818901 -7.53006 -16.818901 -16.818878z" fill-rule="evenodd"/><path fill="#0000ff" d="m429.21783 114.47495l0 0c0 -9.288818 7.5300903 -16.818893 16.818909 -16.818893l0 0c4.460663 0 8.738617 1.7719803 11.892761 4.92614c3.1541443 3.154152 4.9261475 7.432106 4.9261475 11.892754l0 0c0 9.288818 -7.5300903 16.818901 -16.818909 16.818901l0 0c-9.288818 0 -16.818909 -7.5300827 -16.818909 -16.818901z" fill-rule="evenodd"/><path fill="#ff0000" d="m196.30708 48.380585l0 0c0 -9.288818 7.530075 -16.818897 16.818909 -16.818897l0 0c4.4606476 0 8.738586 1.7719879 11.892746 4.9261436c3.1541595 3.154152 4.9261475 7.432106 4.9261475 11.892754l0 0c0 9.288822 -7.530075 16.818901 -16.818893 16.818901l0 0c-9.288834 0 -16.818909 -7.530079 -16.818909 -16.818901z" fill-rule="evenodd"/><path fill="#ff0000" d="m116.82415 157.7007l0 0c0 -9.288834 7.530075 -16.818909 16.818901 -16.818909l0 0c4.4606476 0 8.738602 1.7719879 11.892746 4.9261475c3.1541595 3.1541595 4.9261475 7.4321136 4.9261475 11.892761l0 0c0 9.288818 -7.530075 16.818893 -16.818893 16.818893l0 0c-9.288826 0 -16.818901 -7.530075 -16.818901 -16.818893z" fill-rule="evenodd"/><path fill="#0000ff" d="m190.30052 212.1075l0 0c0 -9.288818 7.530075 -16.818893 16.818893 -16.818893l0 0c4.460663 0 8.738602 1.7719727 11.892761 4.926132c3.1541595 3.1541595 4.9261475 7.4321136 4.9261475 11.892761l0 0c0 9.288818 -7.530075 16.818893 -16.818909 16.818893l0 0c-9.288818 0 -16.818893 -7.530075 -16.818893 -16.818893z" fill-rule="evenodd"/><path fill="#0000ff" d="m318.04462 212.10762l0 0c0 -9.288834 7.5300903 -16.818909 16.818909 -16.818909l0 0c4.4606323 0 8.738586 1.7719879 11.892761 4.9261475c3.1541443 3.1541595 4.926117 7.4321136 4.926117 11.892761l0 0c0 9.288818 -7.53006 16.818893 -16.818878 16.818893l0 0c-9.288818 0 -16.818909 -7.530075 -16.818909 -16.818893z" fill-rule="evenodd"/><path fill="#000000" fill-opacity="0.0" d="m288.34647 195.28871l-244.12599 0" fill-rule="evenodd"/><path stroke="#000000" stroke-width="3.0" stroke-linejoin="round" stroke-linecap="butt" stroke-dasharray="3.0,9.0" d="m288.34647 195.28871l-244.12599 0" fill-rule="evenodd"/><path fill="#000000" fill-opacity="0.0" d="m287.87665 8.467192l0 360.31497" fill-rule="evenodd"/><path stroke="#000000" stroke-width="3.0" stroke-linejoin="round" stroke-linecap="butt" stroke-dasharray="24.0,9.0" d="m287.87665 8.467192l0 360.31497" fill-rule="evenodd"/><path fill="#ff0000" d="m322.02625 343.18097l0 0c0 -9.288818 7.5300903 -16.818878 16.818909 -16.818878l0 0c4.4606323 0 8.738586 1.7719727 11.892761 4.926117c3.1541443 3.1541748 4.926117 7.432129 4.926117 11.892761l0 0c0 9.288818 -7.53006 16.818909 -16.818878 16.818909l0 0c-9.288818 0 -16.818909 -7.5300903 -16.818909 -16.818909z" fill-rule="evenodd"/><path fill="#ff0000" d="m401.77167 267.43295l0 0c0 -9.288818 7.53006 -16.818909 16.818878 -16.818909l0 0c4.460663 0 8.738617 1.7719879 11.892761 4.9261475c3.1541443 3.1541443 4.9261475 7.4320984 4.9261475 11.892761l0 0c0 9.288818 -7.5300903 16.818878 -16.818909 16.818878l0 0c-9.288818 0 -16.818878 -7.53006 -16.818878 -16.818878z" fill-rule="evenodd"/><path fill="#0000ff" d="m254.70866 301.07074l0 0c0 -9.288818 7.530075 -16.818909 16.818893 -16.818909l0 0c4.460663 0 8.738617 1.7720032 11.892761 4.9261475c3.1541443 3.1541748 4.9261475 7.432129 4.9261475 11.892761l0 0c0 9.288818 -7.5300903 16.818909 -16.818909 16.818909l0 0c-9.288818 0 -16.818893 -7.5300903 -16.818893 -16.818909z" fill-rule="evenodd"/><path fill="#0000ff" d="m329.97638 48.380466l0 0c0 -9.288822 7.5300903 -16.8189 16.818909 -16.8189l0 0c4.4606323 0 8.738586 1.771986 11.892731 4.9261417c3.1541748 3.1541557 4.9261475 7.432106 4.9261475 11.892757l0 0c0 9.288818 -7.53006 16.818897 -16.818878 16.818897l0 0c-9.288818 0 -16.818909 -7.530079 -16.818909 -16.818897z" fill-rule="evenodd"/><path fill="#000000" fill-opacity="0.0" d="m479.32022 250.61417l-186.26773 0" fill-rule="evenodd"/><path stroke="#000000" stroke-width="3.0" stroke-linejoin="round" stroke-linecap="butt" stroke-dasharray="3.0,9.0" d="m479.32022 250.61417l-186.26773 0" fill-rule="evenodd"/><path fill="#000000" fill-opacity="0.0" d="m-4.4251966 248.21785l0 -138.07874l42.015747 0l0 138.07874z" fill-rule="evenodd"/><path fill="#000000" d="m22.4948 226.70222l0 1.921875l-3.78125 1.328125l0 5.875l3.78125 1.328125l0 1.828125l-13.562499 -4.9375l0 -2.40625l13.562499 -4.9375zm-5.328125 3.8125l-6.656249 2.375l6.656249 2.390625l0 -4.765625zm5.234375 -11.018921q0.125 0.484375 0.203125 1.0625q0.09375 0.5625 0.09375 1.0q0 1.5625 -0.828125 2.375q-0.84375 0.8125 -2.703125 0.8125l-5.406249 0l0 1.15625l-1.4375 0l0 -1.15625l-2.921875 0l0 -1.71875l2.921875 0l0 -3.53125l1.4375 0l0 3.53125l4.640624 0q0.796875 0 1.25 -0.03125q0.453125 -0.03125 0.84375 -0.25q0.359375 -0.203125 0.53125 -0.546875q0.171875 -0.359375 0.171875 -1.078125q0 -0.421875 -0.125 -0.875q-0.125 -0.453125 -0.203125 -0.65625l0 -0.09375l1.53125 0zm0 -7.351364q0.125 0.484375 0.203125 1.0625q0.09375 0.5625 0.09375 1.0q0 1.5625 -0.828125 2.375q-0.84375 0.8125 -2.703125 0.8125l-5.406249 0l0 1.15625l-1.4375 0l0 -1.15625l-2.921875 0l0 -1.71875l2.921875 0l0 -3.53125l1.4375 0l0 3.53125l4.640624 0q0.796875 0 1.25 -0.03125q0.453125 -0.03125 0.84375 -0.25q0.359375 -0.203125 0.53125 -0.546875q0.171875 -0.359375 0.171875 -1.078125q0 -0.421875 -0.125 -0.875q-0.125 -0.453125 -0.203125 -0.65625l0 -0.09375l1.53125 0zm-8.218749 -8.413864l0 0.09375q-0.09375 0.375 -0.125 0.734375q-0.046875 0.359375 -0.046875 0.859375q0 0.78125 0.359375 1.53125q0.34375 0.734375 0.90625 1.421875l7.218749 0l0 1.703125l-10.171874 0l0 -1.703125l1.5 0q-0.8125 -1.03125 -1.15625 -1.796875q-0.34375 -0.78125 -0.34375 -1.59375q0 -0.453125 0.03125 -0.65625q0.015625 -0.203125 0.078125 -0.59375l1.75 0zm-3.5625 -3.4617004l0 1.9375l-1.78125 0l0 -1.9375l1.78125 0zm11.874999 0.109375l0 1.71875l-10.171874 0l0 -1.71875l10.171874 0zm-5.171875 -12.338287q1.28125 0 2.3125 0.359375q1.015625 0.359375 1.703125 0.96875q0.71875 0.65625 1.078125 1.4375q0.359375 0.765625 0.359375 1.6875q0 0.875 -0.203125 1.515625q-0.203125 0.640625 -0.546875 1.28125l0.46875 0.109375l0 1.59375l-14.171874 0l0 -1.703125l5.0625 0q-0.59375 -0.734375 -0.96875 -1.53125q-0.375 -0.8125 -0.375 -1.828125q0 -1.796875 1.390625 -2.84375q1.375 -1.046875 3.890624 -1.046875zm0.046875 1.765625q-1.812499 0 -2.749999 0.609375q-0.953125 0.59375 -0.953125 1.9375q0 0.75 0.328125 1.515625q0.3125 0.765625 0.828125 1.421875l5.828124 0q0.328125 -0.734375 0.46875 -1.25q0.125 -0.53125 0.125 -1.203125q0 -1.421875 -0.9375 -2.21875q-0.9375 -0.8125 -2.9375 -0.8125zm5.125 -12.873718l0 1.71875l-1.125 0q0.671875 0.859375 1.046875 1.65625q0.359375 0.796875 0.359375 1.75q0 1.609375 -0.96875 2.5q-0.984375 0.890625 -2.890625 0.890625l-6.593749 0l0 -1.71875l5.796874 0q0.765625 0 1.328125 -0.0625q0.546875 -0.078125 0.9375 -0.3125q0.390625 -0.25 0.578125 -0.640625q0.1875 -0.390625 0.1875 -1.140625q0 -0.671875 -0.34375 -1.453125q-0.359375 -0.78125 -0.890625 -1.46875l-7.593749 0l0 -1.71875l10.171874 0zm-0.09375 -8.649658q0.125 0.484375 0.203125 1.0625q0.09375 0.5625 0.09375 1.0q0 1.5625 -0.828125 2.375q-0.84375 0.8125 -2.703125 0.8125l-5.406249 0l0 1.15625l-1.4375 0l0 -1.15625l-2.921875 0l0 -1.71875l2.921875 0l0 -3.53125l1.4375 0l0 3.53125l4.640624 0q0.796875 0 1.25 -0.03125q0.453125 -0.03125 0.84375 -0.25q0.359375 -0.203125 0.53125 -0.546875q0.171875 -0.359375 0.171875 -1.078125q0 -0.421875 -0.125 -0.875q-0.125 -0.453125 -0.203125 -0.65625l0 -0.09375l1.53125 0zm-4.8125 -10.585739l0 7.5q0.9375 0 1.640625 -0.28125q0.6875 -0.28125 1.140625 -0.78125q0.4375 -0.46875 0.65625 -1.109375q0.21875 -0.65625 0.21875 -1.453125q0 -1.03125 -0.421875 -2.078125q-0.421875 -1.0625 -0.8125 -1.5l0 -0.09375l1.859375 0q0.375 0.859375 0.625 1.765625q0.234375 0.90625 0.234375 1.890625q0 2.53125 -1.359375 3.953125q-1.375 1.421875 -3.90625 1.421875q-2.499999 0 -3.953124 -1.359375q-1.46875 -1.359375 -1.46875 -3.578125q0 -2.0625 1.203125 -3.171875q1.203125 -1.125 3.406249 -1.125l0.9375 0zm-1.3125 1.671875q-1.343749 0 -2.078124 0.671875q-0.75 0.671875 -0.75 2.03125q0 1.375 0.8125 2.203125q0.8125 0.8125 2.015624 0.921875l0 -5.828125zm-7.343749 -20.56305l7.609374 4.765625l5.953125 0l0 1.8125l-5.75 0l-7.812499 4.796875l0 -2.0l6.0625 -3.703125l-6.0625 -3.75l0 -1.921875z" fill-rule="nonzero"/><path fill="#000000" fill-opacity="0.0" d="m196.30708 372.5118l138.07875 0l0 42.015747l-138.07875 0z" fill-rule="evenodd"/><path fill="#000000" d="m217.82271 399.43182l-1.921875 0l-1.328125 -3.78125l-5.875 0l-1.328125 3.78125l-1.828125 0l4.9375 -13.5625l2.40625 0l4.9375 13.5625zm-3.8125 -5.328125l-2.375 -6.65625l-2.390625 6.65625l4.765625 0zm11.018921 5.234375q-0.484375 0.125 -1.0625 0.203125q-0.5625 0.09375 -1.0 0.09375q-1.5625 0 -2.375 -0.828125q-0.8125 -0.84375 -0.8125 -2.703125l0 -5.40625l-1.15625 0l0 -1.4375l1.15625 0l0 -2.921875l1.71875 0l0 2.921875l3.53125 0l0 1.4375l-3.53125 0l0 4.640625q0 0.796875 0.03125 1.25q0.03125 0.453125 0.25 0.84375q0.203125 0.359375 0.546875 0.53125q0.359375 0.171875 1.078125 0.171875q0.421875 0 0.875 -0.125q0.453125 -0.125 0.65625 -0.203125l0.09375 0l0 1.53125zm7.351364 0q-0.484375 0.125 -1.0625 0.203125q-0.5625 0.09375 -1.0 0.09375q-1.5625 0 -2.375 -0.828125q-0.8125 -0.84375 -0.8125 -2.703125l0 -5.40625l-1.15625 0l0 -1.4375l1.15625 0l0 -2.921875l1.71875 0l0 2.921875l3.53125 0l0 1.4375l-3.53125 0l0 4.640625q0 0.796875 0.03125 1.25q0.03125 0.453125 0.25 0.84375q0.203125 0.359375 0.546875 0.53125q0.359375 0.171875 1.078125 0.171875q0.421875 0 0.875 -0.125q0.453125 -0.125 0.65625 -0.203125l0.09375 0l0 1.53125zm8.413864 -8.21875l-0.09375 0q-0.375 -0.09375 -0.734375 -0.125q-0.359375 -0.046875 -0.859375 -0.046875q-0.78125 0 -1.53125 0.359375q-0.734375 0.34375 -1.421875 0.90625l0 7.21875l-1.703125 0l0 -10.171875l1.703125 0l0 1.5q1.03125 -0.8125 1.796875 -1.15625q0.78125 -0.34375 1.59375 -0.34375q0.453125 0 0.65625 0.03125q0.203125 0.015625 0.59375 0.078125l0 1.75zm3.4617004 -3.5625l-1.9375 0l0 -1.78125l1.9375 0l0 1.78125zm-0.109375 11.875l-1.71875 0l0 -10.171875l1.71875 0l0 10.171875zm12.338303 -5.171875q0 1.28125 -0.359375 2.3125q-0.35939026 1.015625 -0.96876526 1.703125q-0.65625 0.71875 -1.4375 1.078125q-0.765625 0.359375 -1.6875 0.359375q-0.875 0 -1.515625 -0.203125q-0.640625 -0.203125 -1.28125 -0.546875l-0.109375 0.46875l-1.59375 0l0 -14.171875l1.703125 0l0 5.0625q0.734375 -0.59375 1.53125 -0.96875q0.8125 -0.375 1.828125 -0.375q1.796875 0 2.84375 1.390625q1.0468903 1.375 1.0468903 3.890625zm-1.7656403 0.046875q0 -1.8125 -0.609375 -2.75q-0.59375 -0.953125 -1.9375 -0.953125q-0.75 0 -1.515625 0.328125q-0.765625 0.3125 -1.421875 0.828125l0 5.828125q0.734375 0.328125 1.25 0.46875q0.53125 0.125 1.203125 0.125q1.421875 0 2.21875 -0.9375q0.8125 -0.9375 0.8125 -2.9375zm12.8737335 5.125l-1.71875 0l0 -1.125q-0.859375 0.671875 -1.65625 1.046875q-0.796875 0.359375 -1.75 0.359375q-1.609375 0 -2.5 -0.96875q-0.890625 -0.984375 -0.890625 -2.890625l0 -6.59375l1.71875 0l0 5.796875q0 0.765625 0.0625 1.328125q0.078125 0.546875 0.3125 0.9375q0.25 0.390625 0.640625 0.578125q0.390625 0.1875 1.140625 0.1875q0.671875 0 1.453125 -0.34375q0.78125 -0.359375 1.46875 -0.890625l0 -7.59375l1.71875 0l0 10.171875zm8.649658 -0.09375q-0.484375 0.125 -1.0625 0.203125q-0.5625 0.09375 -1.0 0.09375q-1.5625 0 -2.375 -0.828125q-0.8125 -0.84375 -0.8125 -2.703125l0 -5.40625l-1.15625 0l0 -1.4375l1.15625 0l0 -2.921875l1.71875 0l0 2.921875l3.53125 0l0 1.4375l-3.53125 0l0 4.640625q0 0.796875 0.03125 1.25q0.03125 0.453125 0.25 0.84375q0.203125 0.359375 0.546875 0.53125q0.359375 0.171875 1.078125 0.171875q0.421875 0 0.875 -0.125q0.453125 -0.125 0.65625 -0.203125l0.09375 0l0 1.53125zm10.585724 -4.8125l-7.5 0q0 0.9375 0.28125 1.640625q0.28125 0.6875 0.78125 1.140625q0.46875 0.4375 1.109375 0.65625q0.65625 0.21875 1.453125 0.21875q1.03125 0 2.078125 -0.421875q1.0625 -0.421875 1.5 -0.8125l0.09375 0l0 1.859375q-0.859375 0.375 -1.765625 0.625q-0.90625 0.234375 -1.890625 0.234375q-2.53125 0 -3.953125 -1.359375q-1.421875 -1.375 -1.421875 -3.90625q0 -2.5 1.359375 -3.953125q1.359375 -1.46875 3.578125 -1.46875q2.0625 0 3.171875 1.203125q1.125 1.203125 1.125 3.40625l0 0.9375zm-1.671875 -1.3125q0 -1.34375 -0.671875 -2.078125q-0.671875 -0.75 -2.03125 -0.75q-1.375 0 -2.203125 0.8125q-0.8125 0.8125 -0.921875 2.015625l5.828125 0zm21.31305 -7.34375l-4.6875 6.703125l4.671875 6.859375l-2.078125 0l-3.703125 -5.578125l-3.78125 5.578125l-1.96875 0l4.71875 -6.78125l-4.609375 -6.78125l2.078125 0l3.640625 5.515625l3.734375 -5.515625l1.984375 0z" fill-rule="nonzero"/></g></svg>