<svg version="1.1" viewBox="0.0 0.0 436.3254593175853 305.4278215223097" fill="none" stroke="none" stroke-linecap="square" stroke-miterlimit="10" xmlns:xlink="http://www.w3.org/1999/xlink" xmlns="http://www.w3.org/2000/svg"><clipPath id="p.0"><path d="m0 0l436.32547 0l0 305.42783l-436.32547 0l0 -305.42783z" clip-rule="nonzero"/></clipPath><g clip-path="url(#p.0)"><path fill="#000000" fill-opacity="0.0" d="m0 0l436.32547 0l0 305.42783l-436.32547 0z" fill-rule="evenodd"/><path fill="#000000" fill-opacity="0.0" d="m41.800526 261.18396l386.64566 0" fill-rule="evenodd"/><path stroke="#000000" stroke-width="3.0" stroke-linejoin="round" stroke-linecap="butt" d="m41.800526 261.18396l386.64566 0" fill-rule="evenodd"/><path fill="#000000" fill-opacity="0.0" d="m54.12336 3.4752493l0 269.85828" fill-rule="evenodd"/><path stroke="#000000" stroke-width="3.0" stroke-linejoin="round" stroke-linecap="butt" d="m54.12336 3.4752493l0 269.85828" fill-rule="evenodd"/><path fill="#000000" fill-opacity="0.0" d="m3.9658792 154.29396l0 -101.76378l51.716537 0l0 101.76378z" fill-rule="evenodd"/><path fill="#000000" d="m38.565876 129.91896l0 12.765625l-19.374998 0l0 -12.765625l2.28125 0l0 10.1875l5.3125 0l0 -10.1875l2.296875 0l0 10.1875l7.187498 0l0 -10.1875l2.296875 0zm-11.874998 -12.964767l0 0.140625q-0.125 0.546875 -0.1875 1.0625q-0.0625 0.5 -0.0625 1.203125q0 1.140625 0.515625 2.203125q0.5 1.046875 1.28125 2.015625l10.328123 0l0 2.453125l-14.531248 0l0 -2.453125l2.140625 0q-1.171875 -1.453125 -1.65625 -2.5625q-0.484375 -1.109375 -0.484375 -2.28125q0 -0.625 0.03125 -0.90625q0.03125 -0.296875 0.125 -0.875l2.5 0zm0 -11.375763l0 0.140625q-0.125 0.546875 -0.1875 1.0625q-0.0625 0.5 -0.0625 1.203125q0 1.140625 0.515625 2.203125q0.5 1.046875 1.28125 2.015625l10.328123 0l0 2.453125l-14.531248 0l0 -2.453125l2.140625 0q-1.171875 -1.453125 -1.65625 -2.5625q-0.484375 -1.109375 -0.484375 -2.28125q0 -0.625 0.03125 -0.90625q0.03125 -0.296875 0.125 -0.875l2.5 0zm4.609375 -14.688263q3.562498 0 5.624998 1.828125q2.046875 1.8125 2.046875 4.875q0 3.078125 -2.046875 4.90625q-2.0625 1.8125 -5.624998 1.8125q-3.546875 0 -5.609375 -1.8125q-2.0625 -1.828125 -2.0625 -4.90625q0 -3.0625 2.0625 -4.875q2.0625 -1.828125 5.609375 -1.828125zm0 2.515625q-2.828125 0 -4.1875 1.109375q-1.375 1.109375 -1.375 3.078125q0 1.984375 1.375 3.09375q1.359375 1.09375 4.1875 1.09375q2.734373 0 4.156248 -1.109375q1.40625 -1.109375 1.40625 -3.078125q0 -1.953125 -1.390625 -3.0625q-1.40625 -1.125 -4.171873 -1.125zm-4.609375 -15.381699l0 0.140625q-0.125 0.546875 -0.1875 1.0625q-0.0625 0.5 -0.0625 1.203125q0 1.140625 0.515625 2.203125q0.5 1.046875 1.28125 2.015625l10.328123 0l0 2.453125l-14.531248 0l0 -2.453125l2.140625 0q-1.171875 -1.453125 -1.65625 -2.5625q-0.484375 -1.109375 -0.484375 -2.28125q0 -0.625 0.03125 -0.90625q0.03125 -0.296875 0.125 -0.875l2.5 0z" fill-rule="nonzero"/><path fill="#000000" fill-opacity="0.0" d="m157.09317 261.063l163.71655 0l0 51.716553l-163.71655 0z" fill-rule="evenodd"/><path fill="#000000" d="m183.9838 276.288l-7.0625 19.375l-3.4375 0l-7.046875 -19.375l2.75 0l6.078125 17.046875l6.078125 -17.046875l2.640625 0zm14.034546 19.375l-2.4375 0l0 -1.546875q-0.3125 0.21875 -0.875 0.625q-0.546875 0.390625 -1.078125 0.625q-0.609375 0.296875 -1.40625 0.5q-0.78125 0.203125 -1.859375 0.203125q-1.953125 0 -3.328125 -1.296875q-1.359375 -1.3125 -1.359375 -3.328125q0 -1.65625 0.703125 -2.671875q0.703125 -1.015625 2.03125 -1.609375q1.328125 -0.578125 3.1875 -0.78125q1.859375 -0.21875 3.984375 -0.328125l0 -0.375q0 -0.828125 -0.296875 -1.375q-0.28125 -0.546875 -0.828125 -0.859375q-0.515625 -0.296875 -1.25 -0.40625q-0.734375 -0.109375 -1.53125 -0.109375q-0.953125 0 -2.140625 0.265625q-1.1875 0.25 -2.453125 0.734375l-0.125 0l0 -2.484375q0.71875 -0.203125 2.0625 -0.4375q1.359375 -0.234375 2.671875 -0.234375q1.546875 0 2.671875 0.265625q1.140625 0.25 1.984375 0.859375q0.8125 0.59375 1.234375 1.546875q0.4375 0.953125 0.4375 2.359375l0 9.859375zm-2.4375 -3.578125l0 -4.046875q-1.109375 0.0625 -2.625 0.203125q-1.515625 0.125 -2.40625 0.375q-1.046875 0.296875 -1.703125 0.921875q-0.65625 0.625 -0.65625 1.734375q0 1.25 0.75 1.890625q0.765625 0.625 2.3125 0.625q1.28125 0 2.34375 -0.5q1.078125 -0.5 1.984375 -1.203125zm9.618744 3.578125l-2.4375 0l0 -20.25l2.4375 0l0 20.25zm16.892975 0l-2.4375 0l0 -1.609375q-1.234375 0.96875 -2.375 1.5q-1.125 0.515625 -2.5 0.515625q-2.28125 0 -3.5625 -1.390625q-1.28125 -1.40625 -1.28125 -4.125l0 -9.421875l2.453125 0l0 8.265625q0 1.109375 0.09375 1.90625q0.109375 0.78125 0.453125 1.34375q0.359375 0.5625 0.90625 0.828125q0.5625 0.265625 1.625 0.265625q0.953125 0 2.078125 -0.5q1.125 -0.5 2.109375 -1.265625l0 -10.84375l2.4375 0l0 14.53125zm16.993408 -7.015625l-10.71875 0q0 1.34375 0.40625 2.34375q0.40625 0.984375 1.109375 1.625q0.671875 0.625 1.59375 0.9375q0.9375 0.3125 2.0625 0.3125q1.484375 0 2.984375 -0.59375q1.5 -0.59375 2.140625 -1.15625l0.140625 0l0 2.65625q-1.234375 0.53125 -2.53125 0.890625q-1.28125 0.34375 -2.703125 0.34375q-3.625 0 -5.65625 -1.953125q-2.03125 -1.96875 -2.03125 -5.578125q0 -3.5625 1.9375 -5.65625q1.953125 -2.09375 5.140625 -2.09375q2.9375 0 4.53125 1.71875q1.59375 1.71875 1.59375 4.875l0 1.328125zm-2.375 -1.875q-0.015625 -1.921875 -0.984375 -2.96875q-0.953125 -1.0625 -2.90625 -1.0625q-1.953125 0 -3.125 1.15625q-1.171875 1.15625 -1.328125 2.875l8.34375 0zm27.8443 1.625q0 3.5625 -1.828125 5.625q-1.8125 2.046875 -4.875 2.046875q-3.078125 0 -4.90625 -2.046875q-1.8125 -2.0625 -1.8125 -5.625q0 -3.546875 1.8125 -5.609375q1.828125 -2.0625 4.90625 -2.0625q3.0625 0 4.875 2.0625q1.828125 2.0625 1.828125 5.609375zm-2.515625 0q0 -2.828125 -1.109375 -4.1875q-1.109375 -1.375 -3.078125 -1.375q-1.984375 0 -3.09375 1.375q-1.09375 1.359375 -1.09375 4.1875q0 2.734375 1.109375 4.15625q1.109375 1.40625 3.078125 1.40625q1.953125 0 3.0625 -1.390625q1.125 -1.40625 1.125 -4.171875zm14.131714 -10.625l-0.140625 0q-0.390625 -0.109375 -1.046875 -0.234375q-0.65625 -0.125 -1.140625 -0.125q-1.578125 0 -2.296875 0.703125q-0.703125 0.6875 -0.703125 2.515625l0 0.5l4.40625 0l0 2.046875l-4.328125 0l0 12.484375l-2.453125 0l0 -12.484375l-1.640625 0l0 -2.046875l1.640625 0l0 -0.484375q0 -2.59375 1.28125 -3.96875q1.296875 -1.390625 3.734375 -1.390625q0.828125 0 1.484375 0.078125q0.65625 0.078125 1.203125 0.171875l0 2.234375z" fill-rule="nonzero"/><path fill="#000000" d="m291.25778 288.30362l-4.0625 -7.171875l2.75 0l2.984375 5.53125l5.421875 -5.53125l3.015625 0l-7.4375 7.328125l4.078125 7.203125l-2.765625 0l-3.0 -5.578125l-5.453125 5.578125l-3.0 0l7.46875 -7.359375z" fill-rule="nonzero"/><path fill="#000000" fill-opacity="0.0" d="m54.90814 123.38565c11.929134 -9.615486 52.454945 -61.395885 71.5748 -57.69291c19.119858 3.7029724 26.557297 64.0035 43.144363 79.91076c16.587051 15.907257 35.7874 0.7694702 56.377945 15.532806c20.590546 14.763336 34.563416 83.47987 67.165344 73.04724c32.60193 -10.432632 107.03851 -113.035866 128.4462 -135.64304" fill-rule="evenodd"/><path stroke="#000000" stroke-width="2.0" stroke-linejoin="round" stroke-linecap="butt" d="m54.90814 123.38565c11.929134 -9.615486 52.454945 -61.395885 71.5748 -57.69291c19.119858 3.7029724 26.557297 64.0035 43.144363 79.91076c16.587051 15.907257 35.7874 0.7694702 56.377945 15.532806c20.590546 14.763336 34.563416 83.47987 67.165344 73.04724c32.60193 -10.432632 107.03851 -113.035866 128.4462 -135.64304" fill-rule="evenodd"/><path fill="#ff0000" d="m118.637794 65.685036l0 0c0 -2.9745064 2.411316 -5.3858223 5.385826 -5.3858223l0 0c1.4284134 0 2.798317 0.5674324 3.8083572 1.5774727c1.0100327 1.0100365 1.5774765 2.3799438 1.5774765 3.8083496l0 0c0 2.9745102 -2.4113235 5.3858337 -5.3858337 5.3858337l0 0c-2.9745102 0 -5.385826 -2.4113235 -5.385826 -5.3858337z" fill-rule="evenodd"/><path fill="#ff0000" d="m191.50656 154.67323l0 0c0 -2.9745178 2.411316 -5.3858337 5.3858337 -5.3858337l0 0c1.4284058 0 2.7983093 0.5674286 3.8083496 1.5774689c1.0100403 1.0100403 1.5774689 2.3799438 1.5774689 3.8083649l0 0c0 2.9745026 -2.411316 5.3858185 -5.3858185 5.3858185l0 0c-2.9745178 0 -5.3858337 -2.411316 -5.3858337 -5.3858185z" fill-rule="evenodd"/><path fill="#ff0000" d="m280.24146 234.15486l0 0c0 -2.9745178 2.4113464 -5.3858337 5.3858337 -5.3858337l0 0c1.4284058 0 2.7983093 0.5674286 3.8083496 1.5774689c1.0100403 1.0100403 1.5774841 2.3799438 1.5774841 3.8083649l0 0c0 2.9745026 -2.411316 5.3858185 -5.3858337 5.3858185l0 0c-2.9744873 0 -5.3858337 -2.411316 -5.3858337 -5.3858185z" fill-rule="evenodd"/><path fill="#000000" fill-opacity="0.0" d="m85.637794 26.283464l91.685036 0l0 42.015747l-91.685036 0z" fill-rule="evenodd"/><path fill="#000000" d="m98.99717 57.12534q-1.359375 -1.703125 -2.296875 -4.0q-0.9375 -2.296875 -0.9375 -4.765625q0 -2.15625 0.703125 -4.140625q0.828125 -2.3125 2.53125 -4.59375l1.171875 0q-1.09375 1.890625 -1.453125 2.703125q-0.546875 1.25 -0.875 2.625q-0.390625 1.703125 -0.390625 3.421875q0 4.375 2.71875 8.75l-1.171875 0zm2.634552 -10.515625q0 -2.359375 0.484375 -3.796875q0.484375 -1.453125 1.4375 -2.234375q0.96875 -0.78125 2.421875 -0.78125q1.078125 0 1.890625 0.4375q0.8125 0.421875 1.328125 1.25q0.53125 0.8125 0.828125 1.984375q0.3125 1.15625 0.3125 3.140625q0 2.359375 -0.484375 3.8125q-0.484375 1.4375 -1.453125 2.234375q-0.953125 0.78125 -2.421875 0.78125q-1.921875 0 -3.03125 -1.390625q-1.3125 -1.671875 -1.3125 -5.4375zm1.671875 0q0 3.296875 0.765625 4.390625q0.78125 1.078125 1.90625 1.078125q1.140625 0 1.90625 -1.09375q0.765625 -1.09375 0.765625 -4.375q0 -3.296875 -0.765625 -4.375q-0.765625 -1.078125 -1.921875 -1.078125q-1.125 0 -1.796875 0.953125q-0.859375 1.21875 -0.859375 4.5zm9.610092 6.59375l0 -1.875l1.875 0l0 1.875l-1.875 0zm4.277054 -3.5l1.71875 -0.140625q0.1875 1.25 0.875 1.890625q0.703125 0.625 1.6875 0.625q1.1875 0 2.0 -0.890625q0.828125 -0.890625 0.828125 -2.359375q0 -1.40625 -0.796875 -2.21875q-0.78125 -0.8125 -2.0625 -0.8125q-0.78125 0 -1.421875 0.359375q-0.640625 0.359375 -1.0 0.9375l-1.546875 -0.203125l1.296875 -6.859375l6.640625 0l0 1.5625l-5.328125 0l-0.71875 3.59375q1.203125 -0.84375 2.515625 -0.84375q1.75 0 2.953125 1.21875q1.203125 1.203125 1.203125 3.109375q0 1.8125 -1.046875 3.140625q-1.296875 1.625 -3.515625 1.625q-1.8125 0 -2.96875 -1.015625q-1.15625 -1.03125 -1.3125 -2.71875zm11.250725 3.5l0 -1.875l1.875 0l0 1.875q0 1.03125 -0.375 1.65625q-0.359375 0.640625 -1.15625 0.984375l-0.453125 -0.703125q0.515625 -0.21875 0.765625 -0.671875q0.25 -0.4375 0.28125 -1.265625l-0.9375 0zm9.558304 0l0 -3.203125l-5.796875 0l0 -1.5l6.09375 -8.65625l1.34375 0l0 8.65625l1.796875 0l0 1.5l-1.796875 0l0 3.203125l-1.640625 0zm0 -4.703125l0 -6.015625l-4.1875 6.015625l4.1875 0zm6.031967 4.703125l0 -1.875l1.875 0l0 1.875l-1.875 0zm4.277054 -3.5l1.71875 -0.140625q0.1875 1.25 0.875 1.890625q0.703125 0.625 1.6875 0.625q1.1875 0 2.0 -0.890625q0.828125 -0.890625 0.828125 -2.359375q0 -1.40625 -0.796875 -2.21875q-0.78125 -0.8125 -2.0625 -0.8125q-0.78125 0 -1.421875 0.359375q-0.640625 0.359375 -1.0 0.9375l-1.546875 -0.203125l1.296875 -6.859375l6.640625 0l0 1.5625l-5.328125 0l-0.71875 3.59375q1.203125 -0.84375 2.515625 -0.84375q1.75 0 2.953125 1.21875q1.203125 1.203125 1.203125 3.109375q0 1.8125 -1.046875 3.140625q-1.296875 1.625 -3.515625 1.625q-1.8125 0 -2.96875 -1.015625q-1.15625 -1.03125 -1.3125 -2.71875zm11.906967 7.421875l-1.1875 0q2.734375 -4.375 2.734375 -8.75q0 -1.71875 -0.390625 -3.390625q-0.3125 -1.375 -0.875 -2.625q-0.359375 -0.828125 -1.46875 -2.734375l1.1875 0q1.703125 2.28125 2.53125 4.59375q0.6875 1.984375 0.6875 4.140625q0 2.46875 -0.9375 4.765625q-0.9375 2.296875 -2.28125 4.0z" fill-rule="nonzero"/><path fill="#000000" fill-opacity="0.0" d="m173.6378 114.28346l91.68504 0l0 42.015747l-91.68504 0z" fill-rule="evenodd"/><path fill="#000000" d="m186.99718 145.12534q-1.359375 -1.703125 -2.296875 -4.0q-0.9375 -2.296875 -0.9375 -4.765625q0 -2.15625 0.703125 -4.140625q0.828125 -2.3125 2.53125 -4.59375l1.171875 0q-1.09375 1.890625 -1.453125 2.703125q-0.546875 1.25 -0.875 2.625q-0.390625 1.703125 -0.390625 3.421875q0 4.375 2.71875 8.75l-1.171875 0zm7.884552 -3.921875l0 -3.203125l-5.796875 0l0 -1.5l6.09375 -8.65625l1.34375 0l0 8.65625l1.796875 0l0 1.5l-1.796875 0l0 3.203125l-1.640625 0zm0 -4.703125l0 -6.015625l-4.1875 6.015625l4.1875 0zm6.031967 4.703125l0 -1.875l1.875 0l0 1.875l-1.875 0zm6.792679 -7.234375q-1.015625 -0.375 -1.515625 -1.0625q-0.484375 -0.703125 -0.484375 -1.671875q0 -1.453125 1.046875 -2.4375q1.046875 -1.0 2.78125 -1.0q1.75 0 2.8125 1.015625q1.078125 1.015625 1.078125 2.46875q0 0.9375 -0.5 1.625q-0.484375 0.6875 -1.46875 1.0625q1.21875 0.390625 1.859375 1.28125q0.65625 0.890625 0.65625 2.140625q0 1.703125 -1.21875 2.875q-1.21875 1.171875 -3.1875 1.171875q-1.984375 0 -3.203125 -1.171875q-1.203125 -1.171875 -1.203125 -2.921875q0 -1.3125 0.65625 -2.1875q0.671875 -0.875 1.890625 -1.1875zm-0.328125 -2.78125q0 0.9375 0.609375 1.546875q0.609375 0.59375 1.59375 0.59375q0.9375 0 1.546875 -0.59375q0.609375 -0.59375 0.609375 -1.453125q0 -0.90625 -0.625 -1.515625q-0.625 -0.625 -1.5625 -0.625q-0.9375 0 -1.5625 0.609375q-0.609375 0.59375 -0.609375 1.4375zm-0.53125 6.15625q0 0.703125 0.328125 1.359375q0.34375 0.65625 1.0 1.015625q0.65625 0.359375 1.40625 0.359375q1.171875 0 1.9375 -0.75q0.765625 -0.75 0.765625 -1.921875q0 -1.1875 -0.796875 -1.953125q-0.78125 -0.78125 -1.953125 -0.78125q-1.15625 0 -1.921875 0.765625q-0.765625 0.765625 -0.765625 1.90625zm9.594467 3.859375l0 -1.875l1.875 0l0 1.875q0 1.03125 -0.375 1.65625q-0.359375 0.640625 -1.15625 0.984375l-0.453125 -0.703125q0.515625 -0.21875 0.765625 -0.671875q0.25 -0.4375 0.28125 -1.265625l-0.9375 0zm12.917679 -1.578125l0 1.578125l-8.828125 0q-0.015625 -0.59375 0.1875 -1.140625q0.34375 -0.90625 1.078125 -1.78125q0.75 -0.875 2.15625 -2.015625q2.171875 -1.78125 2.9375 -2.828125q0.765625 -1.046875 0.765625 -1.96875q0 -0.984375 -0.703125 -1.640625q-0.6875 -0.671875 -1.8125 -0.671875q-1.1875 0 -1.90625 0.71875q-0.703125 0.703125 -0.703125 1.953125l-1.6875 -0.171875q0.171875 -1.890625 1.296875 -2.875q1.140625 -0.984375 3.03125 -0.984375q1.921875 0 3.046875 1.0625q1.125 1.0625 1.125 2.640625q0 0.796875 -0.328125 1.578125q-0.328125 0.78125 -1.09375 1.640625q-0.75 0.84375 -2.53125 2.34375q-1.46875 1.234375 -1.890625 1.6875q-0.421875 0.4375 -0.6875 0.875l6.546875 0zm2.6725922 1.578125l0 -1.875l1.875 0l0 1.875l-1.875 0zm4.386429 -11.609375l0 -1.578125l8.640625 0l0 1.28125q-1.28125 1.359375 -2.53125 3.609375q-1.25 2.25 -1.9375 4.625q-0.484375 1.671875 -0.625 3.671875l-1.6875 0q0.03125 -1.578125 0.625 -3.8125q0.59375 -2.234375 1.6875 -4.296875q1.109375 -2.078125 2.359375 -3.5l-6.53125 0zm11.797592 15.53125l-1.1875 0q2.734375 -4.375 2.734375 -8.75q0 -1.71875 -0.390625 -3.390625q-0.3125 -1.375 -0.875 -2.625q-0.359375 -0.828125 -1.46875 -2.734375l1.1875 0q1.703125 2.28125 2.53125 4.59375q0.6875 1.984375 0.6875 4.140625q0 2.46875 -0.9375 4.765625q-0.9375 2.296875 -2.28125 4.0z" fill-rule="nonzero"/><path fill="#000000" fill-opacity="0.0" d="m301.6378 218.28346l91.68506 0l0 42.015762l-91.68506 0z" fill-rule="evenodd"/><path fill="#000000" d="m314.99716 249.12534q-1.359375 -1.703125 -2.296875 -4.0q-0.9375 -2.296875 -0.9375 -4.765625q0 -2.15625 0.703125 -4.140625q0.828125 -2.3125 2.53125 -4.59375l1.171875 0q-1.09375 1.890625 -1.453125 2.703125q-0.546875 1.25 -0.875 2.625q-0.390625 1.703125 -0.390625 3.421875q0 4.375 2.71875 8.75l-1.171875 0zm2.868927 -7.015625l1.578125 -0.140625q0.203125 1.109375 0.765625 1.609375q0.5625 0.5 1.453125 0.5q0.75 0 1.3125 -0.34375q0.578125 -0.34375 0.9375 -0.921875q0.375 -0.578125 0.609375 -1.5625q0.25 -0.984375 0.25 -2.0q0 -0.109375 0 -0.328125q-0.5 0.78125 -1.359375 1.265625q-0.84375 0.484375 -1.828125 0.484375q-1.671875 0 -2.8125 -1.203125q-1.140625 -1.203125 -1.140625 -3.171875q0 -2.03125 1.1875 -3.265625q1.203125 -1.234375 3.0 -1.234375q1.3125 0 2.390625 0.703125q1.078125 0.703125 1.640625 2.0q0.5625 1.296875 0.5625 3.75q0 2.5625 -0.5625 4.078125q-0.5625 1.515625 -1.65625 2.3125q-1.09375 0.796875 -2.578125 0.796875q-1.5625 0 -2.5625 -0.875q-0.984375 -0.875 -1.1875 -2.453125zm6.71875 -5.890625q0 -1.40625 -0.75 -2.234375q-0.75 -0.828125 -1.8125 -0.828125q-1.09375 0 -1.90625 0.890625q-0.8125 0.890625 -0.8125 2.3125q0 1.28125 0.765625 2.078125q0.78125 0.796875 1.90625 0.796875q1.140625 0 1.875 -0.796875q0.734375 -0.796875 0.734375 -2.21875zm4.3288574 8.984375l0 -1.875l1.875 0l0 1.875l-1.875 0zm12.886414 -1.578125l0 1.578125l-8.828125 0q-0.015625 -0.59375 0.1875 -1.140625q0.34375 -0.90625 1.078125 -1.78125q0.75 -0.875 2.15625 -2.015625q2.171875 -1.78125 2.9375 -2.828125q0.765625 -1.046875 0.765625 -1.96875q0 -0.984375 -0.703125 -1.640625q-0.6875 -0.671875 -1.8125 -0.671875q-1.1875 0 -1.90625 0.71875q-0.703125 0.703125 -0.703125 1.953125l-1.6875 -0.171875q0.171875 -1.890625 1.296875 -2.875q1.140625 -0.984375 3.03125 -0.984375q1.921875 0 3.046875 1.0625q1.125 1.0625 1.125 2.640625q0 0.796875 -0.328125 1.578125q-0.328125 0.78125 -1.09375 1.640625q-0.75 0.84375 -2.53125 2.34375q-1.46875 1.234375 -1.890625 1.6875q-0.421875 0.4375 -0.6875 0.875l6.546875 0zm2.6413574 1.578125l0 -1.875l1.875 0l0 1.875q0 1.03125 -0.375 1.65625q-0.359375 0.640625 -1.15625 0.984375l-0.453125 -0.703125q0.515625 -0.21875 0.765625 -0.671875q0.25 -0.4375 0.28125 -1.265625l-0.9375 0zm4.3082886 -6.59375q0 -2.359375 0.484375 -3.796875q0.484375 -1.453125 1.4375 -2.234375q0.96875 -0.78125 2.421875 -0.78125q1.078125 0 1.890625 0.4375q0.8125 0.421875 1.328125 1.25q0.53125 0.8125 0.828125 1.984375q0.3125 1.15625 0.3125 3.140625q0 2.359375 -0.484375 3.8125q-0.484375 1.4375 -1.453125 2.234375q-0.953125 0.78125 -2.421875 0.78125q-1.921875 0 -3.03125 -1.390625q-1.3125 -1.671875 -1.3125 -5.4375zm1.671875 0q0 3.296875 0.765625 4.390625q0.78125 1.078125 1.90625 1.078125q1.140625 0 1.90625 -1.09375q0.765625 -1.09375 0.765625 -4.375q0 -3.296875 -0.765625 -4.375q-0.765625 -1.078125 -1.921875 -1.078125q-1.125 0 -1.796875 0.953125q-0.859375 1.21875 -0.859375 4.5zm9.610107 6.59375l0 -1.875l1.875 0l0 1.875l-1.875 0zm4.2770386 -3.53125l1.640625 -0.21875q0.28125 1.40625 0.953125 2.015625q0.6875 0.609375 1.65625 0.609375q1.15625 0 1.953125 -0.796875q0.796875 -0.796875 0.796875 -1.984375q0 -1.125 -0.734375 -1.859375q-0.734375 -0.734375 -1.875 -0.734375q-0.46875 0 -1.15625 0.171875l0.1875 -1.4375q0.15625 0.015625 0.265625 0.015625q1.046875 0 1.875 -0.546875q0.84375 -0.546875 0.84375 -1.671875q0 -0.90625 -0.609375 -1.5q-0.609375 -0.59375 -1.578125 -0.59375q-0.953125 0 -1.59375 0.609375q-0.640625 0.59375 -0.8125 1.796875l-1.640625 -0.296875q0.296875 -1.640625 1.359375 -2.546875q1.0625 -0.90625 2.65625 -0.90625q1.09375 0 2.0 0.46875q0.921875 0.46875 1.40625 1.28125q0.5 0.8125 0.5 1.71875q0 0.859375 -0.46875 1.578125q-0.46875 0.703125 -1.375 1.125q1.1875 0.28125 1.84375 1.140625q0.65625 0.859375 0.65625 2.15625q0 1.734375 -1.28125 2.953125q-1.265625 1.21875 -3.21875 1.21875q-1.765625 0 -2.921875 -1.046875q-1.15625 -1.046875 -1.328125 -2.71875zm11.906982 7.453125l-1.1875 0q2.734375 -4.375 2.734375 -8.75q0 -1.71875 -0.390625 -3.390625q-0.3125 -1.375 -0.875 -2.625q-0.359375 -0.828125 -1.46875 -2.734375l1.1875 0q1.703125 2.28125 2.53125 4.59375q0.6875 1.984375 0.6875 4.140625q0 2.46875 -0.9375 4.765625q-0.9375 2.296875 -2.28125 4.0z" fill-rule="nonzero"/></g></svg>