<svg version="1.1" viewBox="0.0 0.0 463.1469816272966 382.4146981627297" fill="none" stroke="none" stroke-linecap="square" stroke-miterlimit="10" xmlns:xlink="http://www.w3.org/1999/xlink" xmlns="http://www.w3.org/2000/svg"><clipPath id="p.0"><path d="m0 0l463.14697 0l0 382.4147l-463.14697 0l0 -382.4147z" clip-rule="nonzero"/></clipPath><g clip-path="url(#p.0)"><path fill="#000000" fill-opacity="0.0" d="m0 0l463.14697 0l0 382.4147l-463.14697 0z" fill-rule="evenodd"/><path fill="#000000" fill-opacity="0.0" d="m10.939632 368.1209l438.2047 0" fill-rule="evenodd"/><path stroke="#000000" stroke-width="3.0" stroke-linejoin="round" stroke-linecap="butt" d="m10.939632 368.1209l438.2047 0" fill-rule="evenodd"/><path fill="#000000" fill-opacity="0.0" d="m24.905512 2.351874l0 379.55905" fill-rule="evenodd"/><path stroke="#000000" stroke-width="3.0" stroke-linejoin="round" stroke-linecap="butt" d="m24.905512 2.351874l0 379.55905" fill-rule="evenodd"/><path fill="#ff0000" d="m72.29921 37.31747l0 0c0 -9.288822 7.5300827 -16.8189 16.818901 -16.8189l0 0c4.4606476 0 8.738602 1.771986 11.892754 4.9261417c3.1541595 3.1541557 4.92614 7.432106 4.92614 11.892757l0 0c0 9.288818 -7.530075 16.818897 -16.818893 16.818897l0 0c-9.288818 0 -16.818901 -7.530079 -16.818901 -16.818897z" fill-rule="evenodd"/><path fill="#0000ff" d="m67.04199 312.8214l0 0c0 -9.288849 7.5300827 -16.818909 16.818901 -16.818909l0 0c4.4606476 0 8.738602 1.7719727 11.892754 4.9261475c3.1541595 3.1541443 4.92614 7.4320984 4.92614 11.892761l0 0c0 9.288818 -7.530075 16.818878 -16.818893 16.818878l0 0c-9.288818 0 -16.818901 -7.53006 -16.818901 -16.818878z" fill-rule="evenodd"/><path fill="#ff0000" d="m217.4357 79.314835l0 0c0 -9.288818 7.530075 -16.818893 16.818893 -16.818893l0 0c4.4606476 0 8.738602 1.7719879 11.892761 4.92614c3.1541443 3.154152 4.926132 7.432106 4.926132 11.892754l0 0c0 9.288826 -7.530075 16.818901 -16.818893 16.818901l0 0c-9.288818 0 -16.818893 -7.530075 -16.818893 -16.818901z" fill-rule="evenodd"/><path fill="#0000ff" d="m341.0761 298.76892l0 0c0 -9.288818 7.5300903 -16.818909 16.818909 -16.818909l0 0c4.4606323 0 8.738586 1.7720032 11.892761 4.9261475c3.1541443 3.1541443 4.926117 7.4320984 4.926117 11.892761l0 0c0 9.288818 -7.53006 16.818909 -16.818878 16.818909l0 0c-9.288818 0 -16.818909 -7.5300903 -16.818909 -16.818909z" fill-rule="evenodd"/><path fill="#ff0000" d="m328.47507 48.850403l0 0c0 -9.288822 7.5300903 -16.818897 16.818909 -16.818897l0 0c4.4606323 0 8.738586 1.7719841 11.892731 4.92614c3.1541748 3.1541557 4.9261475 7.432106 4.9261475 11.892757l0 0c0 9.288818 -7.53006 16.818893 -16.818878 16.818893l0 0c-9.288818 0 -16.818909 -7.530075 -16.818909 -16.818893z" fill-rule="evenodd"/><path fill="#ff0000" d="m127.19685 123.362114l0 0c0 -9.288826 7.530075 -16.818901 16.818893 -16.818901l0 0c4.4606476 0 8.738602 1.7719879 11.892761 4.92614c3.1541443 3.1541595 4.926132 7.432106 4.926132 11.892761l0 0c0 9.288811 -7.530075 16.818901 -16.818893 16.818901l0 0c-9.288818 0 -16.818893 -7.5300903 -16.818893 -16.818901z" fill-rule="evenodd"/><path fill="#0000ff" d="m218.5328 245.62456l0 0c0 -9.288818 7.530075 -16.818893 16.818893 -16.818893l0 0c4.4606476 0 8.738602 1.7719727 11.892761 4.926132c3.1541595 3.1541595 4.9261475 7.4321136 4.9261475 11.892761l0 0c0 9.288818 -7.530075 16.818893 -16.818909 16.818893l0 0c-9.288818 0 -16.818893 -7.530075 -16.818893 -16.818893z" fill-rule="evenodd"/><path fill="#0000ff" d="m365.5433 181.04462l0 0c0 -9.288818 7.5300903 -16.818893 16.818909 -16.818893l0 0c4.4606323 0 8.738586 1.7719879 11.892761 4.9261475c3.1541443 3.1541443 4.926117 7.4320984 4.926117 11.892746l0 0c0 9.288834 -7.53006 16.818909 -16.818878 16.818909l0 0c-9.288818 0 -16.818909 -7.530075 -16.818909 -16.818909z" fill-rule="evenodd"/><path fill="#000000" fill-opacity="0.0" d="m436.979 85.514435l-406.3937 169.88977" fill-rule="evenodd"/><path stroke="#000000" stroke-width="3.0" stroke-linejoin="round" stroke-linecap="butt" stroke-dasharray="12.0,9.0" d="m436.979 85.514435l-406.3937 169.88977" fill-rule="evenodd"/></g></svg>