<?xml version="1.0" encoding="UTF-8" standalone="no"?>
<!-- Created with Inkscape (http://www.inkscape.org/) -->

<svg
   width="126.868mm"
   height="126.868mm"
   viewBox="0 0 126.868 126.868"
   version="1.1"
   id="svg838"
   inkscape:version="1.1 (c68e22c387, 2021-05-23)"
   sodipodi:docname="orangetip-wing-2.svg"
   xmlns:inkscape="http://www.inkscape.org/namespaces/inkscape"
   xmlns:sodipodi="http://sodipodi.sourceforge.net/DTD/sodipodi-0.dtd"
   xmlns:xlink="http://www.w3.org/1999/xlink"
   xmlns="http://www.w3.org/2000/svg"
   xmlns:svg="http://www.w3.org/2000/svg">
  <sodipodi:namedview
     id="namedview840"
     pagecolor="#ffffff"
     bordercolor="#666666"
     borderopacity="1.0"
     inkscape:pageshadow="2"
     inkscape:pageopacity="0.0"
     inkscape:pagecheckerboard="0"
     inkscape:document-units="mm"
     showgrid="false"
     inkscape:zoom="0.72713112"
     inkscape:cx="222.79338"
     inkscape:cy="443.52386"
     inkscape:window-width="1193"
     inkscape:window-height="1041"
     inkscape:window-x="240"
     inkscape:window-y="18"
     inkscape:window-maximized="0"
     inkscape:current-layer="layer1"
     inkscape:snap-bbox="false"
     inkscape:bbox-paths="false"
     inkscape:snap-global="false" />
  <defs
     id="defs835">
    <linearGradient
       inkscape:collect="always"
       id="linearGradient4111">
      <stop
         style="stop-color:#fbfbfb;stop-opacity:1"
         offset="0"
         id="stop4107" />
      <stop
         style="stop-color:#e0e2e5;stop-opacity:1"
         offset="1"
         id="stop4109" />
    </linearGradient>
    <linearGradient
       inkscape:collect="always"
       xlink:href="#linearGradient4111"
       id="linearGradient4113"
       x1="95.832825"
       y1="91.901917"
       x2="130.45721"
       y2="51.005333"
       gradientUnits="userSpaceOnUse"
       gradientTransform="matrix(-0.90644816,0,0,0.90644816,115.1864,-3.9161626)" />
  </defs>
  <g
     inkscape:label="Layer 1"
     inkscape:groupmode="layer"
     id="layer1">
    <path
       style="fill:url(#linearGradient4113);fill-opacity:1;stroke:none;stroke-width:1.2373;stroke-linecap:butt;stroke-linejoin:round;stroke-miterlimit:4;stroke-dasharray:none;stroke-opacity:1;paint-order:normal"
       d="M 9.7319704,103.65861 C 28.446565,107.91675 74.928239,102.61672 59.74918,54.05868 L 0.28251036,37.892356 c 0,0 -2.76385996,62.987354 9.44946004,65.766254 z"
       id="path1826"
       sodipodi:nodetypes="sccs" />
    <path
       style="fill:#ffffff;fill-opacity:1;stroke:none;stroke-width:1.065;stroke-linecap:butt;stroke-linejoin:miter;stroke-miterlimit:0;stroke-dasharray:3.195, 3.195;stroke-dashoffset:0;stroke-opacity:1;paint-order:normal"
       d="M 28.757521,15.201283 C 49.462476,15.503372 72.655428,13.069352 91.21648,20.437123 124.12915,34.00585 85.75055,75.017989 67.261306,70.047852 48.77206,65.077715 40.284009,61.353912 0.03767036,44.395151 -0.84027964,22.784132 13.77247,15.974602 28.757521,15.201283 Z"
       id="path936"
       sodipodi:nodetypes="cczcc" />
    <path
       style="fill:#ff8200;fill-opacity:1;stroke:none;stroke-width:1.065;stroke-linecap:butt;stroke-linejoin:miter;stroke-miterlimit:0;stroke-dasharray:3.195, 3.195;stroke-dashoffset:0;stroke-opacity:1;paint-order:normal"
       d="M 53.706215,15 C 69.021667,15.235863 81.64423,16.491046 91.21694,20.437537 124.12961,34.006264 85.75102,75.018403 67.261771,70.048266 56.510093,66.140685 46.404337,15.048305 53.706215,15 Z"
       id="path936-9"
       sodipodi:nodetypes="cscc" />
    <path
       style="fill:#492a00;fill-opacity:1;stroke:none;stroke-width:1.065;stroke-linecap:butt;stroke-linejoin:miter;stroke-miterlimit:0;stroke-dasharray:3.195, 3.195;stroke-dashoffset:0;stroke-opacity:1;paint-order:normal"
       d="M 91.21694,20.437537 C 124.12961,34.006264 85.75102,75.018403 67.261771,70.048266 67.106081,69.781175 100.52546,74.029308 91.21694,20.437537 Z"
       id="path936-9-0"
       sodipodi:nodetypes="ccc" />
    <ellipse
       style="fill:#000000;fill-opacity:1;stroke:none;stroke-width:1.065;stroke-linejoin:round;stroke-miterlimit:0;stroke-dasharray:none;stroke-dashoffset:0;stroke-opacity:1;paint-order:normal"
       id="path15178"
       cx="-57.782536"
       cy="31.613791"
       rx="1.899"
       ry="4.0351863"
       transform="scale(-1,1)" />
    <ellipse
       style="fill:#ffff00;stroke:none;stroke-width:1.065;stroke-linejoin:round;stroke-miterlimit:0;stroke-opacity:1"
       id="path3420"
       cx="-95.415108"
       cy="50.501957"
       rx="0.59273916"
       ry="1.1854783"
       transform="matrix(-0.98386991,0.17888543,0.17888543,0.98386991,0,0)" />
    <ellipse
       style="fill:#ffff00;stroke:none;stroke-width:1.065;stroke-linejoin:round;stroke-miterlimit:0;stroke-opacity:1"
       id="path3420-6"
       cx="-77.823601"
       cy="70.745628"
       rx="0.59273916"
       ry="1.1854783"
       transform="matrix(-0.89592566,0.44420403,0.44420403,0.89592566,0,0)" />
    <ellipse
       style="fill:#ffff00;stroke:none;stroke-width:0.954006;stroke-linejoin:round;stroke-miterlimit:0;stroke-opacity:1"
       id="path3420-6-8"
       cx="-58.376774"
       cy="94.433784"
       rx="0.53349227"
       ry="1.0568966"
       transform="matrix(-0.61870246,0.7856254,0.65747313,0.75347799,0,0)" />
    <ellipse
       style="fill:#ffff00;stroke:none;stroke-width:0.808293;stroke-linejoin:round;stroke-miterlimit:0;stroke-opacity:1"
       id="path3420-6-8-2"
       cx="-26.100273"
       cy="97.112823"
       rx="0.45122865"
       ry="0.89701438"
       transform="matrix(-0.37702036,0.92620497,0.87528635,0.483605,0,0)" />
    <ellipse
       style="fill:#ffff00;stroke:none;stroke-width:1.065;stroke-linejoin:round;stroke-miterlimit:0;stroke-opacity:1"
       id="path3420-3"
       cx="-101.96755"
       cy="40.967831"
       rx="0.59273916"
       ry="1.1854783"
       transform="matrix(-0.99928148,0.03790157,0.03790157,0.99928148,0,0)" />
    <ellipse
       style="fill:#ffff00;stroke:none;stroke-width:1.065;stroke-linejoin:round;stroke-miterlimit:0;stroke-opacity:1"
       id="path3420-3-4"
       cx="-109.28675"
       cy="19.512434"
       rx="0.59273916"
       ry="1.1854783"
       transform="matrix(-0.97818499,-0.20773573,-0.20773573,0.97818499,0,0)" />
    <ellipse
       style="fill:#ffff00;stroke:none;stroke-width:1.065;stroke-linejoin:round;stroke-miterlimit:0;stroke-opacity:1"
       id="path3420-3-4-0"
       cx="-110.86611"
       cy="9.7204733"
       rx="0.59273916"
       ry="1.1854783"
       transform="matrix(-0.94307022,-0.33259368,-0.33259368,0.94307022,0,0)" />
    <ellipse
       style="fill:#ffff00;stroke:none;stroke-width:1.065;stroke-linejoin:round;stroke-miterlimit:0;stroke-opacity:1"
       id="path3420-3-4-0-6"
       cx="-110.43376"
       cy="-12.394517"
       rx="0.59273916"
       ry="1.1854783"
       transform="matrix(-0.83606356,-0.5486326,-0.5486326,0.83606356,0,0)" />
    <ellipse
       style="fill:#ffff00;stroke:none;stroke-width:1.065;stroke-linejoin:round;stroke-miterlimit:0;stroke-opacity:1"
       id="path3420-3-4-0-6-0"
       cx="-110.15944"
       cy="-7.6067204"
       rx="0.59273916"
       ry="1.1854783"
       transform="matrix(-0.83606356,-0.5486326,-0.5486326,0.83606356,0,0)" />
    <ellipse
       style="fill:#ffff00;stroke:none;stroke-width:1.065;stroke-linejoin:round;stroke-miterlimit:0;stroke-opacity:1"
       id="path3420-3-4-0-6-0-9"
       cx="-106.77412"
       cy="-25.029259"
       rx="0.59273916"
       ry="1.1854783"
       transform="matrix(-0.70815447,-0.70605753,-0.70605753,0.70815447,0,0)" />
    <ellipse
       style="fill:#ffff00;stroke:none;stroke-width:0.790856;stroke-linejoin:round;stroke-miterlimit:0;stroke-opacity:1"
       id="path3420-3-4-0-6-0-9-0"
       cx="-107.89784"
       cy="-24.945704"
       rx="0.44010365"
       ry="0.88043559"
       transform="matrix(-0.67657912,-0.73636995,-0.67440081,0.73836546,0,0)" />
    <ellipse
       style="fill:#ffff00;stroke:none;stroke-width:0.567877;stroke-linejoin:round;stroke-miterlimit:0;stroke-opacity:1"
       id="path3420-3-4-0-6-0-9-0-4"
       cx="-103.86439"
       cy="-40.689342"
       rx="0.32247749"
       ry="0.61953616"
       transform="matrix(-0.5215425,-0.85322531,-0.79499331,0.6066182,0,0)" />
    <ellipse
       style="fill:#ffff00;stroke:none;stroke-width:0.337044;stroke-linejoin:round;stroke-miterlimit:0;stroke-opacity:1"
       id="path3420-3-4-0-6-0-9-0-4-4"
       cx="-100.25484"
       cy="-26.004784"
       rx="0.18334848"
       ry="0.383843"
       transform="matrix(-0.61246716,-0.79049603,-0.85673693,0.51575365,0,0)" />
  </g>
</svg>
