<?xml version="1.0" encoding="UTF-8" standalone="no"?>
<!-- Created with Inkscape (http://www.inkscape.org/) -->

<svg
   width="126.868mm"
   height="126.868mm"
   viewBox="0 0 126.868 126.868"
   version="1.1"
   id="svg838"
   inkscape:version="1.1 (c68e22c387, 2021-05-23)"
   sodipodi:docname="peacock-wing-2.svg"
   xmlns:inkscape="http://www.inkscape.org/namespaces/inkscape"
   xmlns:sodipodi="http://sodipodi.sourceforge.net/DTD/sodipodi-0.dtd"
   xmlns:xlink="http://www.w3.org/1999/xlink"
   xmlns="http://www.w3.org/2000/svg"
   xmlns:svg="http://www.w3.org/2000/svg">
  <sodipodi:namedview
     id="namedview840"
     pagecolor="#ffffff"
     bordercolor="#666666"
     borderopacity="1.0"
     inkscape:pageshadow="2"
     inkscape:pageopacity="0.0"
     inkscape:pagecheckerboard="0"
     inkscape:document-units="mm"
     showgrid="false"
     inkscape:zoom="1.2646076"
     inkscape:cx="279.53335"
     inkscape:cy="321.44358"
     inkscape:window-width="1846"
     inkscape:window-height="1057"
     inkscape:window-x="66"
     inkscape:window-y="-8"
     inkscape:window-maximized="1"
     inkscape:current-layer="layer1"
     inkscape:snap-bbox="false"
     inkscape:bbox-paths="false"
     inkscape:snap-global="false" />
  <defs
     id="defs835">
    <linearGradient
       inkscape:collect="always"
       id="linearGradient11939">
      <stop
         style="stop-color:#7e7350;stop-opacity:1;"
         offset="0"
         id="stop11935" />
      <stop
         style="stop-color:#ffe9a2;stop-opacity:1"
         offset="1"
         id="stop11937" />
    </linearGradient>
    <linearGradient
       inkscape:collect="always"
       id="linearGradient20894">
      <stop
         style="stop-color:#ffffff;stop-opacity:1"
         offset="0"
         id="stop20890" />
      <stop
         style="stop-color:#44b0ff;stop-opacity:1"
         offset="1"
         id="stop20892" />
    </linearGradient>
    <linearGradient
       inkscape:collect="always"
       id="linearGradient19711">
      <stop
         style="stop-color:#af2a00;stop-opacity:1;"
         offset="0"
         id="stop19707" />
      <stop
         style="stop-color:#000000;stop-opacity:1"
         offset="1"
         id="stop19709" />
    </linearGradient>
    <linearGradient
       inkscape:collect="always"
       id="linearGradient17094">
      <stop
         style="stop-color:#f9ff5b;stop-opacity:1"
         offset="0"
         id="stop17092" />
      <stop
         style="stop-color:#fff500;stop-opacity:1"
         offset="0"
         id="stop20153" />
      <stop
         style="stop-color:#ffffff;stop-opacity:1"
         offset="0.5"
         id="stop17814" />
      <stop
         style="stop-color:#44b0ff;stop-opacity:1"
         offset="1"
         id="stop17090" />
    </linearGradient>
    <linearGradient
       inkscape:collect="always"
       id="linearGradient6741">
      <stop
         style="stop-color:#ec5009;stop-opacity:1"
         offset="0"
         id="stop10158" />
      <stop
         style="stop-color:#7e7350;stop-opacity:1"
         offset="1"
         id="stop6739" />
    </linearGradient>
    <linearGradient
       inkscape:collect="always"
       xlink:href="#linearGradient6741"
       id="linearGradient6743"
       x1="114.4015"
       y1="38.420673"
       x2="123.24532"
       y2="48.756557"
       gradientUnits="userSpaceOnUse"
       gradientTransform="matrix(-1.1368761,0,0,1.0459008,144.66128,-3.1051595)" />
    <radialGradient
       inkscape:collect="always"
       xlink:href="#linearGradient17094"
       id="radialGradient17136"
       cx="56.333496"
       cy="19.082296"
       fx="56.333496"
       fy="19.082296"
       r="15.07022"
       gradientTransform="matrix(1.626836,-0.08658609,-0.07479489,-1.4052952,-19.28113,50.557385)"
       gradientUnits="userSpaceOnUse" />
    <linearGradient
       inkscape:collect="always"
       xlink:href="#linearGradient19711"
       id="linearGradient19713"
       x1="48.704807"
       y1="19.838068"
       x2="51.372372"
       y2="8.0815144"
       gradientUnits="userSpaceOnUse"
       gradientTransform="matrix(-1,0,0,1,127.27047,0)" />
    <linearGradient
       inkscape:collect="always"
       xlink:href="#linearGradient20894"
       id="linearGradient20726"
       x1="52.072987"
       y1="53.035629"
       x2="41.490337"
       y2="53.853424"
       gradientUnits="userSpaceOnUse"
       gradientTransform="translate(-131.20016,-39.354171)" />
    <linearGradient
       inkscape:collect="always"
       xlink:href="#linearGradient20894"
       id="linearGradient21265"
       gradientUnits="userSpaceOnUse"
       x1="52.072987"
       y1="53.035629"
       x2="41.490337"
       y2="53.853424"
       gradientTransform="matrix(0.59106516,0,0,0.72750386,-107.54757,-19.654511)" />
    <linearGradient
       inkscape:collect="always"
       xlink:href="#linearGradient6741"
       id="linearGradient9965"
       x1="106.71375"
       y1="102.83883"
       x2="123.29219"
       y2="64.310829"
       gradientUnits="userSpaceOnUse"
       gradientTransform="matrix(-1,0,0,1,127.27047,0)" />
    <linearGradient
       inkscape:collect="always"
       xlink:href="#linearGradient11939"
       id="linearGradient11941"
       x1="86.165222"
       y1="110.67123"
       x2="100.56908"
       y2="87.183754"
       gradientUnits="userSpaceOnUse"
       gradientTransform="matrix(-1,0,0,1,127.27047,0)" />
  </defs>
  <g
     inkscape:label="Layer 1"
     inkscape:groupmode="layer"
     id="layer1">
    <path
       style="fill:#434a52;fill-opacity:1;stroke:none;stroke-width:1.365;stroke-linecap:butt;stroke-linejoin:round;stroke-miterlimit:4;stroke-dasharray:none;stroke-opacity:1;paint-order:normal"
       d="m 0,122.96351 c 32.302153,11.41342 42.285691,-6.03578 45.869055,-5.59904 4.888388,0.5958 7.564047,6.88098 9.475297,-1.29208 2.042539,-8.73449 6.982942,-9.73137 15.207205,-23.697419 8.215909,-13.95186 -4.439823,-28.416716 -4.439823,-28.416716 L 0.21535,43.930921 Z"
       id="path1826"
       sodipodi:nodetypes="csssccc" />
    <path
       style="fill:#434a52;fill-opacity:1;stroke:none;stroke-width:0.965;stroke-linecap:butt;stroke-linejoin:miter;stroke-miterlimit:4;stroke-dasharray:none;stroke-opacity:1"
       d="M 0.21535,29.502629 C 10.98273,5.8143868 81.323872,-0.62413066 96.0331,0.86139064 105.52112,1.8196086 100.29528,9.5230842 104.64701,15.935727 119.94019,38.471553 99.01854,13.084672 84.83502,64.38895 79.498748,83.691198 42.085319,55.69501 0.21535,52.421132 Z"
       id="path936"
       sodipodi:nodetypes="cssscc" />
    <path
       style="fill:url(#linearGradient6743);fill-opacity:1;stroke:none;stroke-width:0.870511;stroke-linecap:butt;stroke-linejoin:miter;stroke-miterlimit:4;stroke-dasharray:none;stroke-opacity:1"
       d="M 0.21535,29.864095 C 10.15769,8.9880532 75.108997,3.3138986 88.69114,4.623063 c 8.76101,0.8444611 3.9356,7.633401 7.95388,13.284754 C 110.76638,37.768253 92.87113,15.832022 78.35111,60.608811 71.246117,82.519163 57.582688,59.437888 0.21535,51.722146 Z"
       id="path936-7"
       sodipodi:nodetypes="cssscc" />
    <path
       style="fill:#fffd67;fill-opacity:1;stroke:none;stroke-width:0.963134;stroke-linecap:butt;stroke-linejoin:miter;stroke-miterlimit:4;stroke-dasharray:none;stroke-opacity:1"
       d="M 87.10807,1.8169779 C 85.09118,8.2600075 82.460209,19.576348 79.829367,18.519961 31.400345,20.80819 10.39261,4.6352738 87.10807,1.8169779 Z"
       id="path936-1"
       sodipodi:nodetypes="ccc" />
    <path
       style="fill:#000000;fill-opacity:1;stroke:none;stroke-width:0.287004px;stroke-linecap:butt;stroke-linejoin:miter;stroke-opacity:1"
       d="m 41.295916,7.2247526 c -2.092848,27.5995164 -4.832163,34.6508394 -12.28208,3.9671694 0,0 1.684327,-0.760889 8.294923,-3.078825 1.61557,-0.5664828 3.987157,-0.8883444 3.987157,-0.8883444 z"
       id="path14940"
       sodipodi:nodetypes="ccsc" />
    <path
       style="fill:#7e7350;fill-opacity:1;stroke:none;stroke-width:0.965;stroke-linecap:butt;stroke-linejoin:miter;stroke-miterlimit:4;stroke-dasharray:none;stroke-opacity:1"
       d="M 0.17612,29.323576 C 10.9435,5.6353329 81.284643,-0.80318463 95.99387,0.6823367 69.254989,2.4417614 33.836874,2.2983122 0.17612,37.295623 Z"
       id="path936-4"
       sodipodi:nodetypes="cccc" />
    <path
       style="fill:#000000;fill-opacity:1;stroke:none;stroke-width:0.264583px;stroke-linecap:butt;stroke-linejoin:miter;stroke-opacity:1"
       d="M 45.597645,6.1015633 C 54.962582,35.025399 64.922848,25.132357 90.42666,36.514199 93.90382,32.520008 97.79213,31.402815 101.69858,27.448913 104.66823,24.443189 93.75726,11.581925 94.26788,4.2245422 94.49972,0.88389363 90.19174,1.9380923 86.02596,0.76378717 81.697836,-0.45628279 45.597645,4.9055122 45.597645,6.1015633 Z"
       id="path15430"
       sodipodi:nodetypes="ccsssc" />
    <path
       id="path16517"
       style="fill:url(#radialGradient17136);fill-opacity:1;stroke-width:1.365;stroke-linejoin:round"
       d="M 67.930726,5.8523135 C 63.864954,9.971543 60.771705,28.58107 78.002151,30.214274 84.58726,30.83845 99.14825,30.007469 97.8728,24.361959 95.15079,12.313551 90.35096,5.9580097 87.80138,3.5386077 84.9457,0.82873794 73.374739,0.33672118 67.930726,5.8523135 Z"
       sodipodi:nodetypes="sssss" />
    <path
       id="path16517-3"
       style="fill:url(#linearGradient19713);fill-opacity:1;stroke-width:0.904567;stroke-linejoin:round"
       d="M 72.25456,8.0628366 C 74.033101,16.980034 73.871293,16.153292 70.412066,22.956531 68.623183,26.474717 88.8327,21.921717 86.1593,18.639044 80.060286,11.150042 84.76088,10.100238 83.24319,8.3153483 81.543292,6.3161693 71.237089,2.9614694 72.25456,8.0628366 Z"
       sodipodi:nodetypes="sssss" />
    <ellipse
       style="fill:url(#linearGradient20726);fill-opacity:1;stroke:none;stroke-width:1.20437;stroke-linecap:butt;stroke-linejoin:round;stroke-miterlimit:4;stroke-dasharray:none;stroke-opacity:1;paint-order:normal"
       id="path20513"
       cx="-82.520065"
       cy="13.650846"
       rx="6.4359465"
       ry="2.096916"
       transform="matrix(-0.95408681,-0.29953024,-0.0532124,0.99858322,0,0)" />
    <ellipse
       style="fill:url(#linearGradient21265);fill-opacity:1;stroke:none;stroke-width:0.78976;stroke-linecap:butt;stroke-linejoin:round;stroke-miterlimit:4;stroke-dasharray:none;stroke-opacity:1;paint-order:normal"
       id="path20513-0"
       cx="-78.77446"
       cy="18.906841"
       rx="3.8040638"
       ry="1.5255145"
       transform="matrix(-0.92948185,-0.36886786,-0.04211782,0.99911265,0,0)" />
    <path
       style="fill:url(#linearGradient11941);fill-opacity:1;stroke:none;stroke-width:0.264583px;stroke-linecap:butt;stroke-linejoin:miter;stroke-opacity:1"
       d="m 12.82243,107.18828 c 4.91102,11.74373 15.373616,12.81134 33.736549,0.21352 C 64.921911,94.803972 47.840115,80.711491 40.153305,83.487283 32.466498,86.263074 12.82243,107.18828 12.82243,107.18828 Z"
       id="path10898" />
    <ellipse
       style="fill:#000000;fill-opacity:1;stroke:none;stroke-width:1.365;stroke-linejoin:round;stroke-opacity:1"
       id="path16914"
       cx="-61.849964"
       cy="52.994709"
       rx="9.982091"
       ry="12.071366"
       transform="matrix(-0.91057393,-0.41334625,-0.41334625,0.91057393,0,0)" />
    <path
       id="path12377"
       style="fill:#fff1c4;fill-opacity:1;stroke-width:1.51714;stroke-linejoin:round"
       d="m 36.399161,95.924709 c 7.464563,6.109821 19.075976,5.672651 25.926105,-0.98544 C 69.219397,88.238415 69.163496,77.88536 60.152183,71.828191 44.513831,61.3165 44.94032,67.114675 37.900902,75.251858 31.651034,82.476365 28.934596,89.814882 36.399161,95.924709 Z"
       sodipodi:nodetypes="sssss" />
    <path
       id="path12377-7"
       style="fill:#000000;fill-opacity:1;stroke-width:0.981087;stroke-linejoin:round"
       d="m 40.161162,92.954858 c 4.864209,4.108886 13.527394,3.398849 18.308367,-0.59044 4.811684,-4.01491 6.907894,-14.275015 0.618546,-17.904252 -10.914619,-6.298227 -14.246838,-5.386439 -17.665267,3.97304 -2.10827,5.772332 -7.112026,9.579729 -1.261646,14.521652 z"
       sodipodi:nodetypes="sssss" />
    <path
       id="path12377-7-1"
       style="fill:#82caff;fill-opacity:1;stroke-width:0.604253;stroke-linejoin:round"
       d="m 46.082343,77.026034 c 0.996752,-3.915937 4.989615,-4.74144 8.186919,-2.441657 3.21784,2.314553 6.970765,9.841652 5.216934,13.615478 -3.04362,6.549152 -6.494475,1.556901 -6.416039,-6.118517 0.04906,-4.801199 -8.186647,-0.345447 -6.987814,-5.055304 z"
       sodipodi:nodetypes="sssss" />
    <path
       id="path12377-7-1-35"
       style="fill:#fff1c4;fill-opacity:1;stroke-width:0.822602;stroke-linejoin:round"
       d="M 13.41782,77.797338 C 7.61051,77.158161 4.47342,55.386584 5.85092,54.702012 c 4.68571,-2.328633 13.59917,2.20307 21.19645,4.290457 9.982194,2.742652 5.734161,10.550028 -5.30898,11.678051 -6.9078,0.705615 -1.33588,7.895582 -8.32057,7.126818 z"
       sodipodi:nodetypes="sssss" />
    <path
       id="path12377-7-1-3"
       style="fill:#82caff;fill-opacity:1;stroke-width:0.360949;stroke-linejoin:round"
       d="m 39.479826,90.218419 c 1.499142,1.963344 6.343443,4.610125 8.755406,3.912353 4.185755,-1.21092 0.968391,-3.502033 -3.953318,-4.025874 -1.284731,-3.590906 -8.397049,-4.862712 -4.802088,0.113521 z"
       sodipodi:nodetypes="cscc" />
    <path
       style="fill:url(#linearGradient9965);fill-opacity:1;stroke:none;stroke-width:0.264583px;stroke-linecap:butt;stroke-linejoin:miter;stroke-opacity:1"
       d="m 0.21535,51.722146 c 12.71782,32.10968 -5.18469,56.130224 8.7591,57.259224 17.19539,1.39228 48.57857,-1.32671 10.73837,-45.213199 0,0 -3.8719,-6.520532 -19.49747,-12.046025 z"
       id="path9957"
       sodipodi:nodetypes="cssc" />
  </g>
</svg>
