<?xml version="1.0" encoding="UTF-8" standalone="no"?>
<!-- Created with Inkscape (http://www.inkscape.org/) -->

<svg
   width="126.868mm"
   height="126.868mm"
   viewBox="0 0 126.868 126.868"
   version="1.1"
   id="svg838"
   xmlns:xlink="http://www.w3.org/1999/xlink"
   xmlns="http://www.w3.org/2000/svg"
   xmlns:svg="http://www.w3.org/2000/svg">
  <defs
     id="defs835">
    <linearGradient
       id="linearGradient11450">
      <stop
         style="stop-color:#ff7500;stop-opacity:1"
         offset="0"
         id="stop11446" />
      <stop
         style="stop-color:#ff4400;stop-opacity:1"
         offset="1"
         id="stop11448" />
    </linearGradient>
    <linearGradient
       id="linearGradient8402">
      <stop
         style="stop-color:#4f1700;stop-opacity:1"
         offset="0"
         id="stop8398" />
      <stop
         style="stop-color:#310e00;stop-opacity:1"
         offset="0.37036481"
         id="stop8404" />
      <stop
         style="stop-color:#201009;stop-opacity:1"
         offset="1"
         id="stop8400" />
    </linearGradient>
    <linearGradient
       id="linearGradient6773">
      <stop
         style="stop-color:#381607;stop-opacity:1"
         offset="0"
         id="stop6769" />
      <stop
         style="stop-color:#201612;stop-opacity:1"
         offset="1"
         id="stop6771" />
    </linearGradient>
    <linearGradient
       id="linearGradient6685">
      <stop
         style="stop-color:#050100;stop-opacity:1;"
         offset="0"
         id="stop6681" />
      <stop
         style="stop-color:#050100;stop-opacity:0;"
         offset="1"
         id="stop6683" />
    </linearGradient>
    <linearGradient
       xlink:href="#linearGradient6685"
       id="linearGradient6687"
       x1="46.78627"
       y1="25.338047"
       x2="51.47578"
       y2="53.582973"
       gradientUnits="userSpaceOnUse"
       gradientTransform="matrix(-1,0,0,0.92768293,127.35633,5.1210344)" />
    <linearGradient
       xlink:href="#linearGradient6773"
       id="linearGradient6775"
       x1="121.46952"
       y1="62.980892"
       x2="75.383492"
       y2="89.552048"
       gradientUnits="userSpaceOnUse"
       gradientTransform="matrix(-0.96059006,0,0,0.82119406,123.00036,13.352997)" />
    <linearGradient
       xlink:href="#linearGradient8402"
       id="linearGradient8076"
       x1="113.73721"
       y1="17.382593"
       x2="80.398689"
       y2="42.907642"
       gradientUnits="userSpaceOnUse"
       gradientTransform="matrix(-1,0,0,0.92768293,127.35633,5.1210344)" />
    <linearGradient
       xlink:href="#linearGradient11450"
       id="linearGradient11452"
       x1="67.933464"
       y1="48.963295"
       x2="72.57251"
       y2="22.182919"
       gradientUnits="userSpaceOnUse"
       gradientTransform="matrix(-1,0,0,0.92768293,127.35633,5.1210344)" />
  </defs>
  <g
     id="layer1">
    <path
       style="fill:url(#linearGradient6775);fill-opacity:1;stroke:none;stroke-width:1.21234;stroke-linecap:butt;stroke-linejoin:round;stroke-miterlimit:4;stroke-dasharray:none;stroke-opacity:1;paint-order:normal"
       d="M 0.52569476,111.69092 C 28.500845,123.51277 68.197384,112.15991 72.915047,88.55103 76.129191,72.466295 72.828587,67.634461 72.828587,67.634461 L 0.29272476,49.428809 Z"
       id="path1826" />
    <path
       style="fill:url(#linearGradient8076);fill-opacity:1;stroke:none;stroke-width:0.929452;stroke-linecap:butt;stroke-linejoin:miter;stroke-miterlimit:4;stroke-dasharray:none;stroke-opacity:1"
       d="M 0.62345476,28.132588 C 11.390835,6.1574101 65.966106,-2.4571435 112.8567,8.8315026 c 5.3865,1.2967694 3.24137,14.5920504 4.42947,18.8364884 1.65896,5.926577 -16.29877,0.266497 -32.365282,37.185573 -7.496947,17.22716 -42.749704,-8.065219 -84.61967324,-11.10234 z"
       id="path936" />
    <path
       style="fill:url(#linearGradient6687);fill-opacity:1;stroke:none;stroke-width:0.929452;stroke-linecap:butt;stroke-linejoin:miter;stroke-miterlimit:4;stroke-dasharray:none;stroke-opacity:1"
       d="m 43.032752,8.1868771 c 23.63412,-4.6631854 48.144162,-4.4603248 69.823948,0.6446255 5.3865,1.2967694 3.24137,14.5920504 4.42947,18.8364884 1.65896,5.926577 -16.29877,0.266497 -32.365282,37.185573 C 61.932611,86.351418 56.956909,27.248293 43.032752,8.1868771 Z"
       id="path936-9" />
    <ellipse
       style="fill:#ffffff;fill-opacity:1;stroke-width:0.481685;stroke-linejoin:round;stroke-miterlimit:0;stop-color:#000000"
       id="path10560"
       cx="-96.416115"
       cy="29.153543"
       rx="1.8777498"
       ry="3.6996374"
       transform="matrix(-0.98257921,0.18584429,0.21465416,0.97669012,0,0)" />
    <path
       id="path10560-6"
       style="fill:#ffffff;stroke-width:1.06517;stroke-linejoin:round;stroke-miterlimit:0;stop-color:#000000"
       d="m 76.022991,14.788151 c -2.451211,3.321024 -1.835088,9.774628 5.387323,6.992768 2.020697,-0.778313 2.38856,-4.957683 0.770467,-9.453963 -1.618092,-4.496279 -4.586488,-7.5535056 -6.6301,-6.8285072 -2.043612,0.7249982 -0.998778,7.1266082 0.47231,9.2897022 z" />
    <ellipse
       style="fill:#ffffff;fill-opacity:1;stroke-width:0.365936;stroke-linejoin:round;stroke-miterlimit:0;stop-color:#000000"
       id="path10990"
       cx="-102.71725"
       cy="-36.491669"
       rx="0.94556427"
       ry="1.7729669"
       transform="matrix(-0.86596623,-0.50010247,-0.38166895,0.92429909,0,0)" />
    <ellipse
       style="fill:#ffffff;fill-opacity:1;stroke-width:0.515542;stroke-linejoin:round;stroke-miterlimit:0;stop-color:#000000"
       id="path10990-1"
       cx="-99.315117"
       cy="-14.513186"
       rx="1.4899567"
       ry="2.2332444"
       transform="matrix(-0.92841216,-0.37155195,-0.51188646,0.85905311,0,0)" />
    <ellipse
       style="fill:#ffffff;fill-opacity:1;stroke-width:1.21329;stroke-linejoin:round;stroke-miterlimit:0;stop-color:#000000"
       id="path10990-1-8"
       cx="-94.632072"
       cy="38.463055"
       rx="4.0880013"
       ry="4.5081372"
       transform="matrix(-0.99645469,0.08413121,-0.13319792,0.99108946,0,0)" />
    <ellipse
       style="fill:#ffffff;fill-opacity:1;stroke-width:0.481581;stroke-linejoin:round;stroke-miterlimit:0;stop-color:#000000"
       id="path11138"
       cx="-76.829292"
       cy="37.534294"
       rx="0.94149756"
       ry="0.97045696"
       transform="scale(-1,1)" />
    <path
       style="fill:url(#linearGradient11452);fill-opacity:1;stroke:none;stroke-width:0.254837px;stroke-linecap:butt;stroke-linejoin:miter;stroke-opacity:1"
       d="M 70.238816,46.850681 C 67.309712,40.445665 67.892469,46.63468 63.962164,39.863392 59.56851,32.293829 62.1364,32.459813 55.802519,21.42471 47.224432,6.4796739 34.205215,4.9110259 41.366224,16.184243 c 6.904315,10.869118 13.417703,17.12418 14.017853,22.320509 0.627665,5.434559 3.434814,7.240049 5.02132,8.151838 7.730111,4.442614 -2.913589,20.16907 4.184434,19.40914 8.175596,-0.875296 5.648985,-19.215049 5.648985,-19.215049 z"
       id="path11378" />
    <path
       style="fill:#ff7500;fill-opacity:1;stroke:none;stroke-width:0.234993px;stroke-linecap:butt;stroke-linejoin:miter;stroke-opacity:1"
       d="m 73.837147,73.489157 c 3.939277,40.577353 -40.444256,45.309393 -60.770802,41.060873 -13.46745994,-2.81488 -6.6685302,-9.47682 7.43611,-9.79325 21.288531,-0.47761 39.190381,-18.55566 39.994286,-21.64827 7.427515,2.972456 13.340406,-9.619353 13.340406,-9.619353 z"
       id="path13252" />
    <circle
       style="fill:#000000;fill-opacity:1;stroke:none;stroke-width:0.499999;stroke-linejoin:round;stroke-miterlimit:0;stop-color:#000000"
       id="path15666"
       cx="-63.900322"
       cy="91.529831"
       r="1.987606"
       transform="scale(-1,1)" />
    <circle
       style="fill:#000000;fill-opacity:1;stroke:none;stroke-width:0.499999;stroke-linejoin:round;stroke-miterlimit:0;stop-color:#000000"
       id="path15666-3"
       cx="-53.250614"
       cy="101.52512"
       r="1.987606"
       transform="scale(-1,1)" />
    <circle
       style="fill:#000000;fill-opacity:1;stroke:none;stroke-width:0.499999;stroke-linejoin:round;stroke-miterlimit:0;stop-color:#000000"
       id="path15666-3-0"
       cx="-40.759953"
       cy="107.86817"
       r="1.987606"
       transform="scale(-1,1)" />
    <circle
       style="fill:#000000;fill-opacity:1;stroke:none;stroke-width:0.499999;stroke-linejoin:round;stroke-miterlimit:0;stop-color:#000000"
       id="path15666-3-0-1"
       cx="-26.103733"
       cy="110.37886"
       r="1.987606"
       transform="scale(-1,1)" />
    <ellipse
       style="fill:#6d99d7;fill-opacity:1;stroke:#000000;stroke-width:1.741;stroke-linejoin:round;stroke-miterlimit:0;stroke-dasharray:none;stroke-opacity:1;stop-color:#000000"
       id="path15666-3-0-4"
       cx="-41.486832"
       cy="102.75052"
       rx="3.7659903"
       ry="2.3014386"
       transform="matrix(-0.96493077,-0.26250451,-0.26250451,0.96493077,0,0)" />
    <ellipse
       style="fill:#6d99d7;fill-opacity:1;stroke:#000000;stroke-width:1.741;stroke-linejoin:round;stroke-miterlimit:0;stroke-dasharray:none;stroke-opacity:1;stop-color:#000000"
       id="path15666-3-0-4-0"
       cx="27.865227"
       cy="105.50848"
       rx="3.7659903"
       ry="2.3014386"
       transform="matrix(-0.95540901,0.29528565,0.29528565,0.95540901,0,0)" />
    <ellipse
       style="fill:#6d99d7;fill-opacity:1;stroke:none;stroke-width:0.905624;stroke-linejoin:round;stroke-miterlimit:0;stroke-dasharray:none;stroke-opacity:1;stop-color:#000000"
       id="path15666-3-0-4-0-6"
       cx="17.363985"
       cy="110.81717"
       rx="2.0379264"
       ry="1.1507777"
       transform="matrix(0.00684332,0.99997658,0.99996788,-0.00801504,0,0)" />
    <ellipse
       style="fill:#6d99d7;fill-opacity:1;stroke:none;stroke-width:0.988126;stroke-linejoin:round;stroke-miterlimit:0;stroke-dasharray:none;stroke-opacity:1;stop-color:#000000"
       id="path15666-3-0-4-0-6-6"
       cx="24.220146"
       cy="109.8567"
       rx="2.4260974"
       ry="1.1507931"
       transform="matrix(0.00574839,0.99998348,0.99995448,-0.00954162,0,0)" />
    <ellipse
       style="fill:#6d99d7;fill-opacity:1;stroke:none;stroke-width:0.98961;stroke-linejoin:round;stroke-miterlimit:0;stroke-dasharray:none;stroke-opacity:1;stop-color:#000000"
       id="path15666-3-0-4-0-6-6-4"
       cx="-27.708004"
       cy="99.138885"
       rx="2.4990294"
       ry="1.120567"
       transform="matrix(-0.64235333,0.76640863,0.81386245,0.58105758,0,0)" />
    <ellipse
       style="fill:#6d99d7;fill-opacity:1;stroke:none;stroke-width:0.989379;stroke-linejoin:round;stroke-miterlimit:0;stroke-dasharray:none;stroke-opacity:1;stop-color:#000000"
       id="path15666-3-0-4-0-6-6-4-8"
       cx="-5.9356322"
       cy="99.866516"
       rx="2.478303"
       ry="1.1294112"
       transform="matrix(-0.54686607,0.8372201,0.8740399,0.48585414,0,0)" />
    <path
       id="path16765"
       style="fill:#ffffff;stroke-width:1.21072;stroke-linejoin:round;stroke-miterlimit:0;stop-color:#000000"
       d="m 99.728834,40.862935 c 0.373196,-2.180079 3.294016,-4.757103 6.792086,-5.594323 -4.48892,-1.913819 -10.280986,5.12964 -6.792086,5.594323 z" />
    <path
       id="path16765-4"
       style="fill:#ffffff;stroke-width:1.21072;stroke-linejoin:round;stroke-miterlimit:0;stop-color:#000000"
       d="m 91.740234,50.772606 c 1.40395,-2.797515 1.65344,-6.361521 6.79209,-8.893877 -3.40554,-2.8347 -8.747493,6.931032 -6.79209,8.893877 z" />
    <path
       id="path16765-4-3"
       style="fill:#ffffff;stroke-width:1.21072;stroke-linejoin:round;stroke-miterlimit:0;stop-color:#000000"
       d="m 85.882027,61.790519 c 0.610067,-3.33336 1.696125,-6.484452 4.281427,-8.699785 -4.242421,-0.315101 -6.23683,5.827625 -4.281427,8.699785 z" />
    <path
       id="path16765-4-3-4"
       style="fill:#ffffff;stroke-width:0.950047;stroke-linejoin:round;stroke-miterlimit:0;stop-color:#000000"
       d="m 82.127141,68.674638 c 0.48333,-2.590687 1.343767,-5.039716 3.391992,-6.761472 -3.36109,-0.244898 -4.941174,4.52923 -3.391992,6.761472 z" />
    <path
       id="path16765-4-3-4-0"
       style="fill:#ffffff;stroke-width:0.750007;stroke-linejoin:round;stroke-miterlimit:0;stop-color:#000000"
       d="m 116.43175,16.799379 c -1.13558,-1.50129 -1.87233,-3.049053 -1.1859,-4.597015 -2.95019,0.94346 -1.43283,3.92968 1.1859,4.597015 z" />
    <path
       id="path16765-4-3-4-0-9"
       style="fill:#ffffff;stroke-width:0.750007;stroke-linejoin:round;stroke-miterlimit:0;stop-color:#000000"
       d="m 116.20475,21.938656 c -0.75969,-1.693213 -1.11913,-3.351983 -0.0889,-4.726103 -3.10013,0.330776 -2.31299,3.550361 0.0889,4.726103 z" />
    <path
       id="path16765-4-3-4-0-9-2"
       style="fill:#ffffff;stroke-width:0.750007;stroke-linejoin:round;stroke-miterlimit:0;stop-color:#000000"
       d="m 116.64712,27.335691 c -0.75969,-1.693214 -1.11913,-3.351983 -0.0889,-4.726103 -3.10013,0.330775 -2.313,3.550361 0.0889,4.726103 z" />
  </g>
</svg>
