<svg version="1.1" viewBox="0.0 0.0 466.9212598425197 276.15223097112863" fill="none" stroke="none" stroke-linecap="square" stroke-miterlimit="10" xmlns:xlink="http://www.w3.org/1999/xlink" xmlns="http://www.w3.org/2000/svg"><clipPath id="p.0"><path d="m0 0l466.92126 0l0 276.15222l-466.92126 0l0 -276.15222z" clip-rule="nonzero"/></clipPath><g clip-path="url(#p.0)"><path fill="#000000" fill-opacity="0.0" d="m0 0l466.92126 0l0 276.15222l-466.92126 0z" fill-rule="evenodd"/><path fill="#000000" fill-opacity="0.0" d="m0 147.79807l465.29135 0" fill-rule="evenodd"/><path stroke="#000000" stroke-width="3.0" stroke-linejoin="round" stroke-linecap="butt" d="m0 147.79807l465.29135 0" fill-rule="evenodd"/><path fill="#000000" fill-opacity="0.0" d="m245.0105 1.67979E-4l0 274.48816" fill-rule="evenodd"/><path stroke="#000000" stroke-width="3.0" stroke-linejoin="round" stroke-linecap="butt" d="m245.0105 1.67979E-4l0 274.48816" fill-rule="evenodd"/><path fill="#ff0000" d="m65.385826 31.947392l0 0c0 -9.28882 7.530075 -16.818897 16.818901 -16.818897l0 0c4.4606476 0 8.738602 1.771987 11.892754 4.926141c3.154152 3.1541557 4.92614 7.432108 4.92614 11.892757l0 0c0 9.288818 -7.530075 16.818897 -16.818893 16.818897l0 0c-9.288826 0 -16.818901 -7.530079 -16.818901 -16.818897z" fill-rule="evenodd"/><path fill="#ff0000" d="m173.3937 82.2756l0 0c0 -9.288818 7.530075 -16.818893 16.818893 -16.818893l0 0c4.4606476 0 8.738602 1.7719803 11.892761 4.92614c3.1541443 3.154152 4.926132 7.432106 4.926132 11.892754l0 0c0 9.288826 -7.530075 16.818901 -16.818893 16.818901l0 0c-9.288818 0 -16.818893 -7.530075 -16.818893 -16.818901z" fill-rule="evenodd"/><path fill="#ff0000" d="m110.28084 71.83717l0 0c0 -9.288818 7.530075 -16.818893 16.818901 -16.818893l0 0c4.46064 0 8.738594 1.7719841 11.892754 4.92614c3.1541595 3.1541557 4.9261475 7.432106 4.9261475 11.892754l0 0c0 9.288826 -7.530075 16.818901 -16.818901 16.818901l0 0c-9.288826 0 -16.818901 -7.530075 -16.818901 -16.818901z" fill-rule="evenodd"/><path fill="#0000ff" d="m146.75197 35.047127l0 0c0 -9.28882 7.530075 -16.818897 16.818893 -16.818897l0 0c4.4606476 0 8.738602 1.771986 11.892761 4.9261417c3.1541595 3.1541557 4.9261475 7.432108 4.9261475 11.8927555l0 0c0 9.288822 -7.5300903 16.818897 -16.818909 16.818897l0 0c-9.288818 0 -16.818893 -7.530075 -16.818893 -16.818897z" fill-rule="evenodd"/><path fill="#ff0000" d="m231.79265 31.947384l0 0c0 -9.288822 7.530075 -16.818897 16.818893 -16.818897l0 0c4.460663 0 8.738617 1.771985 11.892761 4.926141c3.1541443 3.1541557 4.9261475 7.432108 4.9261475 11.892757l0 0c0 9.288818 -7.5300903 16.818897 -16.818909 16.818897l0 0c-9.288818 0 -16.818893 -7.530079 -16.818893 -16.818897z" fill-rule="evenodd"/><path fill="#ff0000" d="m320.97375 48.637672l0 0c0 -9.288822 7.5300903 -16.818897 16.818909 -16.818897l0 0c4.4606323 0 8.738586 1.7719841 11.892731 4.92614c3.1541748 3.1541557 4.9261475 7.432106 4.9261475 11.892757l0 0c0 9.288818 -7.53006 16.818893 -16.818878 16.818893l0 0c-9.288818 0 -16.818909 -7.530075 -16.818909 -16.818893z" fill-rule="evenodd"/><path fill="#0000ff" d="m16.761154 71.83714l0 0c0 -9.288818 7.530077 -16.818893 16.818897 -16.818893l0 0c4.4606514 0 8.738602 1.7719841 11.892757 4.92614c3.1541557 3.1541557 4.92614 7.432106 4.92614 11.892754l0 0c0 9.288826 -7.530075 16.818901 -16.818897 16.818901l0 0c-9.28882 0 -16.818897 -7.530075 -16.818897 -16.818901z" fill-rule="evenodd"/><path fill="#0000ff" d="m289.85303 114.159996l0 0c0 -9.288826 7.53006 -16.818901 16.818878 -16.818901l0 0c4.460663 0 8.738617 1.7719879 11.892761 4.92614c3.1541748 3.1541595 4.9261475 7.432106 4.9261475 11.892761l0 0c0 9.288818 -7.5300903 16.818901 -16.818909 16.818901l0 0c-9.288818 0 -16.818878 -7.5300827 -16.818878 -16.818901z" fill-rule="evenodd"/><path fill="#ff0000" d="m426.57217 35.04712l0 0c0 -9.288818 7.5300903 -16.818895 16.818909 -16.818895l0 0c4.4606323 0 8.738586 1.771986 11.892761 4.92614c3.1541443 3.1541557 4.926117 7.432108 4.926117 11.8927555l0 0c0 9.288822 -7.53006 16.818901 -16.818878 16.818901l0 0c-9.288818 0 -16.818909 -7.530079 -16.818909 -16.818901z" fill-rule="evenodd"/><path fill="#0000ff" d="m406.30447 147.7979l0 0c0 -9.288818 7.53006 -16.818893 16.818878 -16.818893l0 0c4.460663 0 8.738617 1.7719879 11.892761 4.9261475c3.1541443 3.1541443 4.9261475 7.4320984 4.9261475 11.892746l0 0c0 9.288834 -7.5300903 16.818909 -16.818909 16.818909l0 0c-9.288818 0 -16.818878 -7.530075 -16.818878 -16.818909z" fill-rule="evenodd"/></g></svg>