<svg version="1.1" viewBox="0.0 0.0 466.9212598425197 276.15223097112863" fill="none" stroke="none" stroke-linecap="square" stroke-miterlimit="10" xmlns:xlink="http://www.w3.org/1999/xlink" xmlns="http://www.w3.org/2000/svg"><clipPath id="p.0"><path d="m0 0l466.92126 0l0 276.15222l-466.92126 0l0 -276.15222z" clip-rule="nonzero"/></clipPath><g clip-path="url(#p.0)"><path fill="#000000" fill-opacity="0.0" d="m0 0l466.92126 0l0 276.15222l-466.92126 0z" fill-rule="evenodd"/><path fill="#000000" fill-opacity="0.0" d="m0 147.79807l465.29135 0" fill-rule="evenodd"/><path stroke="#000000" stroke-width="3.0" stroke-linejoin="round" stroke-linecap="butt" d="m0 147.79807l465.29135 0" fill-rule="evenodd"/><path fill="#000000" fill-opacity="0.0" d="m245.0105 1.67979E-4l0 274.48816" fill-rule="evenodd"/><path stroke="#000000" stroke-width="3.0" stroke-linejoin="round" stroke-linecap="butt" d="m245.0105 1.67979E-4l0 274.48816" fill-rule="evenodd"/><path fill="#ff0000" d="m140.28609 79.47769l0 0c0 -9.001808 7.297409 -16.299213 16.29921 -16.299213l0 0c4.32283 0 8.468597 1.7172356 11.525284 4.7739296c3.0567017 3.056694 4.773941 7.2024612 4.773941 11.525284l0 0c0 9.001808 -7.297409 16.29921 -16.299225 16.29921l0 0c-9.001801 0 -16.29921 -7.2974014 -16.29921 -16.29921z" fill-rule="evenodd"/><path fill="#ff0000" d="m228.64961 76.97113l0 0c0 -9.001808 7.297394 -16.299213 16.29921 -16.299213l0 0c4.322815 0 8.468582 1.7172318 11.525269 4.7739296c3.0567017 3.056694 4.773926 7.2024612 4.773926 11.525284l0 0c0 9.001808 -7.297394 16.29921 -16.299194 16.29921l0 0c-9.001816 0 -16.29921 -7.2974014 -16.29921 -16.29921z" fill-rule="evenodd"/><path fill="#ff0000" d="m275.28085 101.43569l0 0c0 -9.001801 7.297394 -16.29921 16.299194 -16.29921l0 0c4.322815 0 8.468597 1.7172318 11.525299 4.773926c3.0566711 3.0567017 4.773926 7.202469 4.773926 11.525284l0 0c0 9.001808 -7.2974243 16.299217 -16.299225 16.299217l0 0c-9.001801 0 -16.299194 -7.297409 -16.299194 -16.299217z" fill-rule="evenodd"/><path fill="#ff0000" d="m330.7638 81.514435l0 0c0 -9.001808 7.297394 -16.29921 16.299194 -16.29921l0 0c4.322815 0 8.468597 1.7172318 11.525299 4.773926c3.0566711 3.056694 4.773926 7.2024612 4.773926 11.525284l0 0c0 9.001808 -7.2974243 16.299217 -16.299225 16.299217l0 0c-9.001801 0 -16.299194 -7.297409 -16.299194 -16.299217z" fill-rule="evenodd"/><path fill="#ff0000" d="m163.16536 137.2441l0 0c0 -9.001801 7.297394 -16.29921 16.29921 -16.29921l0 0c4.322815 0 8.468582 1.7172318 11.525284 4.773926c3.0566864 3.0567017 4.773926 7.202469 4.773926 11.525284l0 0c0 9.001801 -7.297409 16.29921 -16.29921 16.29921l0 0c-9.001816 0 -16.29921 -7.297409 -16.29921 -16.29921z" fill-rule="evenodd"/><path fill="#ff0000" d="m196.60892 150.7454l0 0c0 -9.001801 7.297409 -16.29921 16.299225 -16.29921l0 0c4.322815 0 8.468582 1.7172241 11.525284 4.773926c3.0566864 3.0567017 4.773926 7.202469 4.773926 11.525284l0 0c0 9.001801 -7.297409 16.29921 -16.29921 16.29921l0 0c-9.001816 0 -16.299225 -7.297409 -16.299225 -16.29921z" fill-rule="evenodd"/><path fill="#0000ff" d="m182.021 81.514435l0 0c0 -9.001808 7.297409 -16.29921 16.29921 -16.29921l0 0c4.32283 0 8.468597 1.7172318 11.525284 4.773926c3.0567017 3.056694 4.773926 7.2024612 4.773926 11.525284l0 0c0 9.001808 -7.297394 16.299217 -16.29921 16.299217l0 0c-9.001801 0 -16.29921 -7.297409 -16.29921 -16.299217z" fill-rule="evenodd"/><path fill="#0000ff" d="m113.61155 135.44357l0 0c0 -9.001808 7.2974014 -16.299217 16.299217 -16.299217l0 0c4.322815 0 8.468582 1.7172318 11.525284 4.7739334c3.0566864 3.056694 4.773926 7.2024536 4.773926 11.525284l0 0c0 9.001801 -7.297409 16.29921 -16.29921 16.29921l0 0c-9.001816 0 -16.299217 -7.297409 -16.299217 -16.29921z" fill-rule="evenodd"/><path fill="#0000ff" d="m258.3176 197.48294l0 0c0 -9.001801 7.297394 -16.29921 16.299194 -16.29921l0 0c4.322815 0 8.468597 1.7172241 11.525299 4.773926c3.0567017 3.0567017 4.773926 7.202469 4.773926 11.525284l0 0c0 9.001801 -7.2974243 16.29921 -16.299225 16.29921l0 0c-9.001801 0 -16.299194 -7.297409 -16.299194 -16.29921z" fill-rule="evenodd"/><path fill="#0000ff" d="m320.02362 246.79002l0 0c0 -9.001801 7.297394 -16.29921 16.299225 -16.29921l0 0c4.322815 0 8.468567 1.7172394 11.525269 4.773926c3.0567017 3.0567017 4.773926 7.202469 4.773926 11.525284l0 0c0 9.001816 -7.297394 16.29921 -16.299194 16.29921l0 0c-9.001831 0 -16.299225 -7.297394 -16.299225 -16.29921z" fill-rule="evenodd"/></g></svg>