<svg version="1.1" viewBox="0.0 0.0 163.6220472440945 100.0" fill="none" stroke="none" stroke-linecap="square" stroke-miterlimit="10" xmlns:xlink="http://www.w3.org/1999/xlink" xmlns="http://www.w3.org/2000/svg"><clipPath id="p.0"><path d="m0 0l163.62204 0l0 100.0l-163.62204 0l0 -100.0z" clip-rule="nonzero"/></clipPath><g clip-path="url(#p.0)"><path fill="#000000" fill-opacity="0.0" d="m0 0l163.62204 0l0 100.0l-163.62204 0z" fill-rule="evenodd"/><path fill="#000000" fill-opacity="0.0" d="m80.90646 5.1574802l0 90.48819" fill-rule="evenodd"/><path stroke="#000000" stroke-width="1.0" stroke-linejoin="round" stroke-linecap="butt" d="m80.90646 5.1574802l0 90.48819" fill-rule="evenodd"/><path fill="#000000" fill-opacity="0.0" d="m5.2913384 82.42745l151.2126 0" fill-rule="evenodd"/><path stroke="#000000" stroke-width="1.0" stroke-linejoin="round" stroke-linecap="butt" d="m5.2913384 82.42745l151.2126 0" fill-rule="evenodd"/><path fill="#000000" fill-opacity="0.0" d="m5.2913384 79.968506c10.30744 -0.61548615 46.999786 2.2007828 61.84464 -3.6929169c14.844856 -5.8936996 12.054192 -25.624672 27.22448 -31.669289c15.170288 -6.0446205 53.164368 -3.8320236 63.79724 -4.598427" fill-rule="evenodd"/><path stroke="#000000" stroke-width="1.0" stroke-linejoin="round" stroke-linecap="butt" d="m5.2913384 79.968506c10.30744 -0.61548615 46.999786 2.2007828 61.84464 -3.6929169c14.844856 -5.8936996 12.054192 -25.624672 27.22448 -31.669289c15.170288 -6.0446205 53.164368 -3.8320236 63.79724 -4.598427" fill-rule="evenodd"/><path fill="#000000" fill-opacity="0.0" d="m80.905365 39.330708l-2.8346481 0" fill-rule="evenodd"/><path stroke="#000000" stroke-width="1.0" stroke-linejoin="round" stroke-linecap="butt" d="m80.905365 39.330708l-2.8346481 0" fill-rule="evenodd"/><path fill="#000000" fill-opacity="0.0" d="m59.853634 24.532808l15.496059 0l0 29.070868l-15.496059 0z" fill-rule="evenodd"/><path fill="#000000" d="m70.58407 41.21281l-3.140625 0l0 -0.59375l1.203125 0l0 -3.90625l-1.203125 0l0 -0.53125q0.234375 0 0.515625 -0.03125q0.28125 -0.046875 0.4375 -0.125q0.171875 -0.09375 0.265625 -0.234375q0.109375 -0.15625 0.125 -0.421875l0.609375 0l0 5.25l1.1875 0l0 0.59375z" fill-rule="nonzero"/><path fill="#000000" fill-opacity="0.0" d="m83.92126 60.524933l-2.9606247 0" fill-rule="evenodd"/><path stroke="#000000" stroke-width="1.0" stroke-linejoin="round" stroke-linecap="butt" d="m83.92126 60.524933l-2.9606247 0" fill-rule="evenodd"/><path fill="#000000" fill-opacity="0.0" d="m78.97546 46.34339l37.984253 0l0 29.07087l-37.984253 0z" fill-rule="evenodd"/><path fill="#000000" d="m92.53796 60.11714q0 1.5625 -0.5 2.296875q-0.484375 0.734375 -1.515625 0.734375q-1.046875 0 -1.53125 -0.734375q-0.484375 -0.75 -0.484375 -2.296875q0 -1.546875 0.484375 -2.28125q0.5 -0.75 1.53125 -0.75q1.046875 0 1.53125 0.75q0.484375 0.75 0.484375 2.28125zm-1.03125 1.765625q0.140625 -0.3125 0.1875 -0.734375q0.046875 -0.4375 0.046875 -1.03125q0 -0.59375 -0.046875 -1.03125q-0.046875 -0.4375 -0.1875 -0.75q-0.140625 -0.296875 -0.375 -0.453125q-0.234375 -0.15625 -0.609375 -0.15625q-0.359375 0 -0.609375 0.15625q-0.234375 0.15625 -0.375 0.46875q-0.140625 0.28125 -0.1875 0.75q-0.046875 0.46875 -0.046875 1.015625q0 0.609375 0.046875 1.03125q0.046875 0.40625 0.1875 0.71875q0.125 0.3125 0.359375 0.46875q0.234375 0.15625 0.625 0.15625q0.375 0 0.609375 -0.140625q0.25 -0.15625 0.375 -0.46875zm3.4765625 1.140625l-0.9375 0l0 -1.109375l0.9375 0l0 1.109375zm5.5039062 -1.84375q0 0.40625 -0.15625 0.78125q-0.140625 0.359375 -0.390625 0.609375q-0.28125 0.28125 -0.671875 0.4375q-0.390625 0.140625 -0.90625 0.140625q-0.46875 0 -0.921875 -0.109375q-0.4375 -0.09375 -0.734375 -0.234375l0 -0.828125l0.046875 0q0.328125 0.203125 0.75 0.34375q0.4375 0.140625 0.84375 0.140625q0.28125 0 0.53125 -0.078125q0.265625 -0.078125 0.46875 -0.265625q0.171875 -0.171875 0.265625 -0.40625q0.09375 -0.234375 0.09375 -0.546875q0 -0.296875 -0.109375 -0.5q-0.109375 -0.203125 -0.28125 -0.328125q-0.203125 -0.15625 -0.5 -0.21875q-0.296875 -0.0625 -0.65625 -0.0625q-0.34375 0 -0.65625 0.046875q-0.3125 0.046875 -0.546875 0.09375l0 -2.984375l3.5 0l0 0.671875l-2.75 0l0 1.546875q0.171875 -0.015625 0.34375 -0.015625q0.171875 -0.015625 0.3125 -0.015625q0.46875 0 0.8125 0.09375q0.359375 0.078125 0.65625 0.28125q0.3125 0.203125 0.484375 0.546875q0.171875 0.34375 0.171875 0.859375z" fill-rule="nonzero"/></g></svg>