<?xml version="1.0" encoding="UTF-8" standalone="no"?>
<!-- Created with Inkscape (http://www.inkscape.org/) -->

<svg
   width="86.656319mm"
   height="47.485191mm"
   viewBox="0 0 86.656319 47.485191"
   version="1.1"
   id="svg5"
   xmlns="http://www.w3.org/2000/svg"
   xmlns:svg="http://www.w3.org/2000/svg">
  <defs
     id="defs2" />
  <g
     id="layer1"
     transform="translate(-47.862383,-71.262237)">
    <g
       id="g3394">
      <path
         style="fill:#000000;fill-opacity:1;stroke:none;stroke-width:0.801;stroke-linecap:butt;stroke-linejoin:miter;stroke-miterlimit:4;stroke-dasharray:none;stroke-opacity:1"
         d="m 79.975072,71.475652 c -50.063545,0.935885 -26.638218,19.506765 -26.638218,19.506765 0,0 -14.576918,-13.988699 26.799837,-13.653424 C 115.56541,77.616071 139.09292,76.732766 127.299,90.922684 148.22554,70.961483 120.98114,70.709082 79.975072,71.475652 Z"
         id="path857" />
      <path
         style="fill:#000000;fill-opacity:1;stroke:none;stroke-width:0.744321;stroke-linecap:butt;stroke-linejoin:miter;stroke-miterlimit:4;stroke-dasharray:none;stroke-opacity:1"
         d="m 101.57893,118.64393 c 32.74234,-0.22536 22.95164,-19.435272 22.95164,-19.435272 0,0 4.94136,14.175302 -23.10664,13.581792 -30.590307,-0.6473 -44.501582,2.19079 -43.176666,-12.54625 -7.707758,19.89265 7.918144,18.64347 43.331666,18.39973 z"
         id="path857-6" />
      <path
         style="fill:#000000;fill-opacity:1;stroke:none;stroke-width:0.264583px;stroke-linecap:butt;stroke-linejoin:miter;stroke-opacity:1"
         d="m 71.598807,76.472023 c -18.930575,16.86883 -3.263949,40.243407 8.809276,40.860057 9.507965,0.48563 30.551327,-2.06175 30.551327,-2.06175 0,0 -14.430812,0.18824 0,0 13.80399,-13.40579 11.24588,-39.735463 -9.18414,-39.735464 -8.068268,0 -30.176463,0.937157 -30.176463,0.937157 z"
         id="path2467" />
      <path
         style="fill:#ffffff;fill-opacity:1;stroke:#000000;stroke-width:0.122357px;stroke-linecap:butt;stroke-linejoin:miter;stroke-opacity:1"
         d="m 86.251301,83.067103 c 9.629671,0.333695 21.281569,-2.447106 20.607499,2.002177 -1.30927,8.641912 -8.666706,5.450371 -15.214883,3.78189 -6.548176,-1.668481 -11.363012,4.449283 -13.77043,2.002177 -4.852137,-4.932128 -1.251858,-8.11994 8.377814,-7.786244 z"
         id="path2981" />
    </g>
  </g>
</svg>
